<?xml version="1.0" encoding="UTF-8" standalone="no"?>
<!-- Created with Inkscape (http://www.inkscape.org/) -->

<svg
   xmlns:dc="http://purl.org/dc/elements/1.1/"
   xmlns:cc="http://creativecommons.org/ns#"
   xmlns:rdf="http://www.w3.org/1999/02/22-rdf-syntax-ns#"
   xmlns:svg="http://www.w3.org/2000/svg"
   xmlns="http://www.w3.org/2000/svg"
   xmlns:xlink="http://www.w3.org/1999/xlink"
   xmlns:sodipodi="http://sodipodi.sourceforge.net/DTD/sodipodi-0.dtd"
   xmlns:inkscape="http://www.inkscape.org/namespaces/inkscape"
   width="96"
   height="96"
   id="svg2408"
   sodipodi:version="0.32"
   inkscape:version="0.92.4 (unknown)"
   version="1.0"
   sodipodi:docname="nm-secure-lock.svg"
   inkscape:output_extension="org.inkscape.output.svg.inkscape">
  <metadata
     id="metadata96">
    <rdf:RDF>
      <cc:Work
         rdf:about="">
        <dc:format>image/svg+xml</dc:format>
        <dc:type
           rdf:resource="http://purl.org/dc/dcmitype/StillImage" />
      </cc:Work>
    </rdf:RDF>
  </metadata>
  <defs
     id="defs2410">
    <linearGradient
       inkscape:collect="always"
       id="linearGradient4033">
      <stop
         style="stop-color:#000000;stop-opacity:1;"
         offset="0"
         id="stop4035" />
      <stop
         style="stop-color:#000000;stop-opacity:0;"
         offset="1"
         id="stop4037" />
    </linearGradient>
    <linearGradient
       inkscape:collect="always"
       id="linearGradient4005">
      <stop
         style="stop-color:#000000;stop-opacity:1;"
         offset="0"
         id="stop4007" />
      <stop
         style="stop-color:#000000;stop-opacity:0;"
         offset="1"
         id="stop4009" />
    </linearGradient>
    <linearGradient
       id="linearGradient3977">
      <stop
         style="stop-color:#cbcbcb;stop-opacity:1"
         offset="0"
         id="stop3979" />
      <stop
         style="stop-color:#efefef;stop-opacity:1"
         offset="1"
         id="stop3981" />
    </linearGradient>
    <linearGradient
       id="linearGradient3956">
      <stop
         id="stop3958"
         offset="0"
         style="stop-color:#e6c94c;stop-opacity:1;" />
      <stop
         style="stop-color:#e7ce5f;stop-opacity:1"
         offset="0.57832253"
         id="stop3966" />
      <stop
         style="stop-color:#f0de93;stop-opacity:1"
         offset="0.83333331"
         id="stop3960" />
      <stop
         id="stop3962"
         offset="0.91666669"
         style="stop-color:#d0b64c;stop-opacity:1" />
      <stop
         id="stop3964"
         offset="1"
         style="stop-color:#907d2e;stop-opacity:1" />
    </linearGradient>
    <linearGradient
       id="linearGradient3927">
      <stop
         style="stop-color:#e6c94c;stop-opacity:1;"
         offset="0"
         id="stop3929" />
      <stop
         id="stop3935"
         offset="0.83333331"
         style="stop-color:#f0de93;stop-opacity:1" />
      <stop
         style="stop-color:#d0b64c;stop-opacity:1"
         offset="0.91666669"
         id="stop3937" />
      <stop
         style="stop-color:#907d2e;stop-opacity:1"
         offset="1"
         id="stop3931" />
    </linearGradient>
    <linearGradient
       inkscape:collect="always"
       id="linearGradient4029">
      <stop
         style="stop-color:#ffffff;stop-opacity:1;"
         offset="0"
         id="stop4031" />
      <stop
         style="stop-color:#ffffff;stop-opacity:0;"
         offset="1"
         id="stop4033" />
    </linearGradient>
    <inkscape:perspective
       sodipodi:type="inkscape:persp3d"
       inkscape:vp_x="0 : 48 : 1"
       inkscape:vp_y="0 : 1000 : 0"
       inkscape:vp_z="96 : 48 : 1"
       inkscape:persp3d-origin="48 : 32 : 1"
       id="perspective48" />
    <linearGradient
       id="ButtonShadow"
       gradientTransform="scale(1.0058652,0.994169)"
       x1="45.447727"
       y1="92.539597"
       x2="45.447727"
       y2="7.0165396"
       gradientUnits="userSpaceOnUse">
      <stop
         style="stop-color:#000000;stop-opacity:1;"
         offset="0"
         id="stop3750" />
      <stop
         style="stop-color:#000000;stop-opacity:0.58823532;"
         offset="1"
         id="stop3752" />
    </linearGradient>
    <linearGradient
       id="linearGradient3700">
      <stop
         style="stop-color:#2276c5;stop-opacity:1;"
         offset="0"
         id="stop3702" />
      <stop
         style="stop-color:#68baf4;stop-opacity:1;"
         offset="1"
         id="stop3704" />
    </linearGradient>
    <clipPath
       clipPathUnits="userSpaceOnUse"
       id="clipPath3613">
      <rect
         ry="6"
         rx="6"
         y="6"
         x="6"
         height="84"
         width="84"
         id="rect3615"
         style="fill:#ffffff;fill-opacity:1;fill-rule:nonzero;stroke:none" />
    </clipPath>
    <linearGradient
       id="ButtonShadow-0"
       gradientTransform="matrix(1.0058652,0,0,0.994169,100,0)"
       x1="45.447727"
       y1="92.539597"
       x2="45.447727"
       y2="7.0165396"
       gradientUnits="userSpaceOnUse">
      <stop
         style="stop-color:#000000;stop-opacity:1;"
         offset="0"
         id="stop3750-8" />
      <stop
         style="stop-color:#000000;stop-opacity:0.58823532;"
         offset="1"
         id="stop3752-5" />
    </linearGradient>
    <linearGradient
       id="linearGradient3734">
      <stop
         style="stop-color:#bfbfbf;stop-opacity:1;"
         offset="0"
         id="stop3736" />
      <stop
         style="stop-color:#9a9a9a;stop-opacity:1;"
         offset="1"
         id="stop3738" />
    </linearGradient>
    <linearGradient
       id="linearGradient3771">
      <stop
         id="stop3773"
         offset="0"
         style="stop-color:#ababab;stop-opacity:0" />
      <stop
         style="stop-color:#e6e6e6;stop-opacity:1"
         offset="0.15620089"
         id="stop3779" />
      <stop
         style="stop-color:#aaaaaa;stop-opacity:1;"
         offset="1"
         id="stop3777" />
    </linearGradient>
    <linearGradient
       id="linearGradient3716">
      <stop
         style="stop-color:#20385a;stop-opacity:1;"
         offset="0"
         id="stop3718" />
      <stop
         style="stop-color:#20385a;stop-opacity:0;"
         offset="1"
         id="stop3720" />
    </linearGradient>
    <linearGradient
       id="linearGradient3175">
      <stop
         style="stop-color:#1d3251;stop-opacity:1;"
         offset="0"
         id="stop3177" />
      <stop
         style="stop-color:#5f8ac6;stop-opacity:1;"
         offset="1"
         id="stop3179" />
    </linearGradient>
    <linearGradient
       inkscape:collect="always"
       xlink:href="#linearGradient3700-8"
       id="linearGradient3706"
       x1="48"
       y1="72"
       x2="48"
       y2="5.9877172"
       gradientUnits="userSpaceOnUse" />
    <linearGradient
       id="linearGradient3700-8">
      <stop
         style="stop-color:#000000;stop-opacity:1;"
         offset="0"
         id="stop3702-5" />
      <stop
         style="stop-color:#1f1f1f;stop-opacity:1;"
         offset="1"
         id="stop3704-6" />
    </linearGradient>
    <radialGradient
       gradientUnits="userSpaceOnUse"
       gradientTransform="matrix(-0.00506833,1.2204755,-1.3843695,-0.00574561,26.241279,-46.842142)"
       r="35.9375"
       fy="-15.894132"
       fx="48"
       cy="-15.894132"
       cx="48"
       id="radialGradient3465-8"
       xlink:href="#linearGradient3175-4"
       inkscape:collect="always" />
    <linearGradient
       id="linearGradient3175-4">
      <stop
         id="stop3177-5"
         offset="0"
         style="stop-color:#55a6eb;stop-opacity:1;" />
      <stop
         id="stop3179-1"
         offset="1"
         style="stop-color:#1754c4;stop-opacity:1;" />
    </linearGradient>
    <linearGradient
       inkscape:collect="always"
       xlink:href="#linearGradient4029"
       id="linearGradient4035"
       x1="-67"
       y1="11.5"
       x2="-39"
       y2="11.5"
       gradientUnits="userSpaceOnUse" />
    <linearGradient
       inkscape:collect="always"
       xlink:href="#linearGradient3737-1"
       id="linearGradient2675"
       gradientUnits="userSpaceOnUse"
       x1="65.15625"
       y1="16.125"
       x2="65.15625"
       y2="69.687508" />
    <linearGradient
       id="linearGradient3737-1"
       inkscape:collect="always">
      <stop
         id="stop3739-4"
         offset="0"
         style="stop-color:#ffffff;stop-opacity:1;" />
      <stop
         id="stop3741-91"
         offset="1"
         style="stop-color:#ffffff;stop-opacity:0;" />
    </linearGradient>
    <linearGradient
       inkscape:collect="always"
       xlink:href="#linearGradient3956"
       id="linearGradient3933"
       x1="48"
       y1="41"
       x2="60"
       y2="41"
       gradientUnits="userSpaceOnUse"
       spreadMethod="reflect" />
    <linearGradient
       inkscape:collect="always"
       xlink:href="#linearGradient3956"
       id="linearGradient3945"
       gradientUnits="userSpaceOnUse"
       spreadMethod="reflect"
       x1="48"
       y1="41"
       x2="60"
       y2="41"
       gradientTransform="translate(0,6)" />
    <linearGradient
       inkscape:collect="always"
       xlink:href="#linearGradient3956"
       id="linearGradient3954"
       gradientUnits="userSpaceOnUse"
       gradientTransform="translate(0,12)"
       spreadMethod="reflect"
       x1="48"
       y1="41"
       x2="60"
       y2="41" />
    <linearGradient
       inkscape:collect="always"
       xlink:href="#linearGradient3977"
       id="linearGradient3983"
       x1="48"
       y1="36"
       x2="56.96875"
       y2="36"
       gradientUnits="userSpaceOnUse"
       spreadMethod="reflect" />
    <linearGradient
       inkscape:collect="always"
       xlink:href="#linearGradient4005"
       id="linearGradient4011"
       x1="39.03125"
       y1="35.984375"
       x2="47.230457"
       y2="24.974846"
       gradientUnits="userSpaceOnUse" />
    <linearGradient
       inkscape:collect="always"
       xlink:href="#linearGradient4033"
       id="linearGradient4039"
       x1="56.727566"
       y1="37.282234"
       x2="48.758419"
       y2="23.479269"
       gradientUnits="userSpaceOnUse" />
  </defs>
  <sodipodi:namedview
     id="base"
     pagecolor="#ffffff"
     bordercolor="#666666"
     borderopacity="1.0"
     inkscape:pageopacity="0.0"
     inkscape:pageshadow="2"
     inkscape:zoom="2.8781667"
     inkscape:cx="-71.285576"
     inkscape:cy="54.521129"
     inkscape:document-units="px"
     inkscape:current-layer="layer6"
     showgrid="true"
     showborder="true"
     inkscape:showpageshadow="false"
     inkscape:window-width="1921"
     inkscape:window-height="1232"
     inkscape:window-x="1784"
     inkscape:window-y="426"
     inkscape:window-maximized="0"
     inkscape:snap-global="false" />
  <g
     inkscape:groupmode="layer"
     id="layer6"
     inkscape:label="Lock"
     style="display:inline">
    <g
       id="g214"
       transform="matrix(1.1389593,0,0,1.0713204,-37.245063,-21.651536)">
      <path
         d="m 48,21.029297 c -6.579909,0 -11.970703,5.390794 -11.970703,11.970703 v 3.195312 C 34.309564,36.643113 32.998047,38.148778 32.998047,40 v 4 c 0,0.537304 0.20147,0.734055 0.363281,1 -0.161811,0.265945 -0.363281,0.462696 -0.363281,1 v 4 c 0,0.537304 0.20147,0.734055 0.363281,1 -0.161811,0.265945 -0.363281,0.462696 -0.363281,1 v 4 c 0,2.194591 1.807362,4.001953 4.001953,4.001953 h 22 c 2.194591,0 4.001953,-1.807362 4.001953,-4.001953 v -4 c 0,-0.537304 -0.20147,-0.734055 -0.363281,-1 0.161811,-0.265945 0.363281,-0.462696 0.363281,-1 v -4 c 0,-0.537304 -0.20147,-0.734055 -0.363281,-1 0.161811,-0.265945 0.363281,-0.462696 0.363281,-1 v -4 c 0,-1.851222 -1.311517,-3.356887 -3.03125,-3.804688 V 33 C 59.970703,26.420091 54.579909,21.029297 48,21.029297 Z m 0,9.003906 c 1.85377,0 2.966797,1.113027 2.966797,2.966797 v 2.998047 H 45.033203 V 33 c 0,-1.85377 1.113027,-2.966797 2.966797,-2.966797 z"
         id="path4087"
         style="color:#000000;display:inline;overflow:visible;visibility:visible;opacity:0.05;fill:#000000;fill-opacity:1;fill-rule:nonzero;stroke:none;stroke-width:2;marker:none;enable-background:accumulate"
         inkscape:original="M 48 22 C 41.949613 22 37 26.949613 37 33 L 37 36.96875 C 35.340357 36.96875 33.96875 38.340357 33.96875 40 L 33.96875 44 C 33.96875 44.512118 34.202962 44.716009 34.375 45 C 34.202962 45.283991 33.96875 45.487882 33.96875 46 L 33.96875 50 C 33.96875 50.512118 34.202962 50.716009 34.375 51 C 34.202962 51.283991 33.96875 51.487882 33.96875 52 L 33.96875 56 C 33.96875 57.659643 35.340357 59.03125 37 59.03125 L 59 59.03125 C 60.659643 59.03125 62.03125 57.659643 62.03125 56 L 62.03125 52 C 62.03125 51.487882 61.797038 51.283991 61.625 51 C 61.797038 50.716009 62.03125 50.512118 62.03125 50 L 62.03125 46 C 62.03125 45.487882 61.797038 45.283991 61.625 45 C 61.797038 44.716009 62.03125 44.512118 62.03125 44 L 62.03125 40 C 62.03125 38.340357 60.659643 36.96875 59 36.96875 L 59 33 C 59 26.949613 54.050387 22 48 22 z M 48 29.0625 C 50.309873 29.0625 51.9375 30.690127 51.9375 33 L 51.9375 36.96875 L 44.0625 36.96875 L 44.0625 33 C 44.0625 30.690127 45.690127 29.0625 48 29.0625 z "
         inkscape:radius="0.97092915"
         sodipodi:type="inkscape:offset" />
      <path
         inkscape:connector-curvature="0"
         id="path4082"
         d="m 48,22 c -6.050387,0 -11,4.949613 -11,11 v 3.96875 c -1.659643,0 -3.03125,1.371607 -3.03125,3.03125 v 4 c 0,0.512118 0.234212,0.716009 0.40625,1 -0.172038,0.283991 -0.40625,0.487882 -0.40625,1 v 4 c 0,0.512118 0.234212,0.716009 0.40625,1 -0.172038,0.283991 -0.40625,0.487882 -0.40625,1 v 4 c 0,1.659643 1.371607,3.03125 3.03125,3.03125 h 22 c 1.659643,0 3.03125,-1.371607 3.03125,-3.03125 v -4 c 0,-0.512118 -0.234212,-0.716009 -0.40625,-1 0.172038,-0.283991 0.40625,-0.487882 0.40625,-1 v -4 c 0,-0.512118 -0.234212,-0.716009 -0.40625,-1 0.172038,-0.283991 0.40625,-0.487882 0.40625,-1 v -4 c 0,-1.659643 -1.371607,-3.03125 -3.03125,-3.03125 V 33 C 59,26.949613 54.050387,22 48,22 Z m 0,7.0625 c 2.309873,0 3.9375,1.627627 3.9375,3.9375 v 3.96875 h -7.875 V 33 c 0,-2.309873 1.627627,-3.9375 3.9375,-3.9375 z"
         style="color:#000000;display:inline;overflow:visible;visibility:visible;opacity:0.07999998;fill:#000000;fill-opacity:1;fill-rule:nonzero;stroke:none;stroke-width:2;marker:none;enable-background:accumulate" />
      <path
         d="m 48,23.060547 c -5.477877,0 -9.939453,4.461576 -9.939453,9.939453 v 5.029297 H 37 c -1.0751,0 -1.970703,0.895603 -1.970703,1.970703 v 4 c 0,0.387206 0.220995,0.692778 0.419922,1 -0.198927,0.307222 -0.419922,0.612794 -0.419922,1 v 4 c 0,0.387206 0.220995,0.692778 0.419922,1 -0.198927,0.307222 -0.419922,0.612794 -0.419922,1 v 4 c 0,1.0751 0.895603,1.970703 1.970703,1.970703 h 22 c 1.0751,0 1.970703,-0.895603 1.970703,-1.970703 v -4 c 0,-0.387206 -0.220995,-0.692778 -0.419922,-1 0.198927,-0.307222 0.419922,-0.612794 0.419922,-1 v -4 c 0,-0.387206 -0.220995,-0.692778 -0.419922,-1 0.198927,-0.307222 0.419922,-0.612794 0.419922,-1 V 40 C 60.970703,38.9249 60.0751,38.029297 59,38.029297 H 57.939453 V 33 c 0,-5.477877 -4.461576,-9.939453 -9.939453,-9.939453 z m 0,4.941406 c 2.843291,0 4.998047,2.154756 4.998047,4.998047 v 5.029297 H 43.001953 V 33 c 0,-2.843291 2.154756,-4.998047 4.998047,-4.998047 z"
         id="path4078"
         style="color:#000000;display:inline;overflow:visible;visibility:visible;opacity:0.12000002;fill:#000000;fill-opacity:1;fill-rule:nonzero;stroke:none;stroke-width:2;marker:none;enable-background:accumulate"
         inkscape:original="M 48 24.03125 C 43.0469 24.03125 39.03125 28.0469 39.03125 33 L 39.03125 39 L 37 39 C 36.446 39 36 39.446 36 40 L 36 44 C 36 44.554 36.446 45 37 45 C 36.446 45 36 45.446 36 46 L 36 50 C 36 50.554 36.446 51 37 51 C 36.446 51 36 51.446 36 52 L 36 56 C 36 56.554 36.446 57 37 57 L 59 57 C 59.554 57 60 56.554 60 56 L 60 52 C 60 51.446 59.554 51 59 51 C 59.554 51 60 50.554 60 50 L 60 46 C 60 45.446 59.554 45 59 45 C 59.554 45 60 44.554 60 44 L 60 40 C 60 39.446 59.554 39 59 39 L 56.96875 39 L 56.96875 33 C 56.96875 28.0469 52.9531 24.03125 48 24.03125 z M 48 27.03125 C 51.349468 27.03125 53.96875 29.650532 53.96875 33 L 53.96875 39 L 42.03125 39 L 42.03125 33 C 42.03125 29.650532 44.650532 27.03125 48 27.03125 z "
         inkscape:radius="0.97092915"
         sodipodi:type="inkscape:offset" />
      <path
         inkscape:connector-curvature="0"
         id="path4063"
         d="m 48,24.03125 c -4.9531,0 -8.96875,4.01565 -8.96875,8.96875 v 6 H 37 c -0.554,0 -1,0.446 -1,1 v 4 c 0,0.554 0.446,1 1,1 -0.554,0 -1,0.446 -1,1 v 4 c 0,0.554 0.446,1 1,1 -0.554,0 -1,0.446 -1,1 v 4 c 0,0.554 0.446,1 1,1 h 22 c 0.554,0 1,-0.446 1,-1 v -4 c 0,-0.554 -0.446,-1 -1,-1 0.554,0 1,-0.446 1,-1 v -4 c 0,-0.554 -0.446,-1 -1,-1 0.554,0 1,-0.446 1,-1 v -4 c 0,-0.554 -0.446,-1 -1,-1 h -2.03125 v -6 c 0,-4.9531 -4.01565,-8.96875 -8.96875,-8.96875 z m 0,3 c 3.349468,0 5.96875,2.619282 5.96875,5.96875 v 6 h -11.9375 v -6 c 0,-3.349468 2.619282,-5.96875 5.96875,-5.96875 z"
         style="color:#000000;display:inline;overflow:visible;visibility:visible;opacity:0.3;fill:#000000;fill-opacity:1;fill-rule:nonzero;stroke:none;stroke-width:2;marker:none;enable-background:accumulate" />
      <path
         sodipodi:nodetypes="ssssssssssssss"
         inkscape:connector-curvature="0"
         id="path3974"
         d="m 48,23.03125 c -4.9531,0 -8.96875,4.01565 -8.96875,8.96875 v 8 c 0,4.9531 4.01565,8.96875 8.96875,8.96875 4.9531,0 8.96875,-4.01565 8.96875,-8.96875 v -8 c 0,-4.9531 -4.01565,-8.96875 -8.96875,-8.96875 z m 0,3 c 3.349468,0 5.96875,2.619282 5.96875,5.96875 v 8 c 0,3.349468 -2.619282,5.96875 -5.96875,5.96875 -3.349468,0 -5.96875,-2.619282 -5.96875,-5.96875 v -8 c 0,-3.349468 2.619282,-5.96875 5.96875,-5.96875 z"
         style="color:#000000;display:inline;overflow:visible;visibility:visible;fill:url(#linearGradient3983);fill-opacity:1;fill-rule:nonzero;stroke:none;stroke-width:2;marker:none;enable-background:accumulate" />
      <path
         inkscape:connector-curvature="0"
         id="rect3985"
         d="m 48,25 c -3.878,0 -7,3.122 -7,7 v 12 c 0,0.661889 0.11112,1.300171 0.28125,1.90625 1.643856,1.874098 4.03012,3.0625 6.71875,3.0625 2.68863,0 5.074894,-1.188402 6.71875,-3.0625 C 54.88888,45.300171 55,44.661889 55,44 V 32 c 0,-3.878 -3.122,-7 -7,-7 z m 0,1.03125 c 3.349468,0 5.96875,2.619282 5.96875,5.96875 v 8 c 0,3.349468 -2.619282,5.96875 -5.96875,5.96875 -3.349468,0 -5.96875,-2.619282 -5.96875,-5.96875 v -8 c 0,-3.349468 2.619282,-5.96875 5.96875,-5.96875 z"
         style="color:#000000;display:inline;overflow:visible;visibility:visible;opacity:0.1;fill:#000000;fill-opacity:1;fill-rule:nonzero;stroke:none;stroke-width:2;marker:none;enable-background:accumulate" />
      <path
         transform="matrix(0.95522388,0,0,0.9875956,2.1492537,0.60355158)"
         d="m 48,25.326172 c -3.70276,0 -6.673828,2.971068 -6.673828,6.673828 v 12 c 0,0.599785 0.105202,1.181874 0.257812,1.744141 1.583676,1.774077 3.85154,2.898437 6.416016,2.898437 2.564476,0 4.83234,-1.12436 6.416016,-2.898437 C 54.568626,45.181874 54.673828,44.599785 54.673828,44 V 32 c 0,-3.70276 -2.971068,-6.673828 -6.673828,-6.673828 z m 0,0.378906 c 3.51969,0 6.294922,2.775232 6.294922,6.294922 v 8 c 0,3.51969 -2.775232,6.294922 -6.294922,6.294922 -3.51969,0 -6.294922,-2.775232 -6.294922,-6.294922 v -8 c 0,-3.51969 2.775232,-6.294922 6.294922,-6.294922 z"
         id="path3993"
         style="color:#000000;display:inline;overflow:visible;visibility:visible;opacity:0.2;fill:#000000;fill-opacity:1;fill-rule:nonzero;stroke:none;stroke-width:2;marker:none;enable-background:accumulate"
         inkscape:original="M 48 25 C 44.122 25 41 28.122 41 32 L 41 44 C 41 44.661889 41.11112 45.300171 41.28125 45.90625 C 42.925106 47.780348 45.31137 48.96875 48 48.96875 C 50.68863 48.96875 53.074894 47.780348 54.71875 45.90625 C 54.88888 45.300171 55 44.661889 55 44 L 55 32 C 55 28.122 51.878 25 48 25 z M 48 26.03125 C 51.349468 26.03125 53.96875 28.650532 53.96875 32 L 53.96875 40 C 53.96875 43.349468 51.349468 45.96875 48 45.96875 C 44.650532 45.96875 42.03125 43.349468 42.03125 40 L 42.03125 32 C 42.03125 28.650532 44.650532 26.03125 48 26.03125 z "
         inkscape:radius="-0.32651302"
         sodipodi:type="inkscape:offset" />
      <path
         inkscape:connector-curvature="0"
         id="path3995"
         d="m 48,23.03125 c -4.9531,0 -8.96875,4.01565 -8.96875,8.96875 v 8 c 0,4.803463 3.785443,8.704923 8.53125,8.9375 C 43.040099,48.485235 39.5,44.69729 39.5,40.125 V 32.25 c 0,-4.87711 4.01565,-8.8125 8.96875,-8.8125 1.961522,0 3.773702,0.604265 5.25,1.65625 C 52.168406,23.814278 50.166981,23.03125 48,23.03125 Z m 3.84375,4.34375 c 1.310757,1.085979 2.125,2.749544 2.125,4.625 v 8 c 0,3.349468 -2.619282,5.96875 -5.96875,5.96875 -0.178019,0 -0.35764,-0.01674 -0.53125,-0.03125 0.324528,0.05172 0.658264,0.0625 1,0.0625 3.349468,0 5.96875,-2.57692 5.96875,-5.875 V 32.25 c 0,-2.061301 -1.008641,-3.829535 -2.59375,-4.875 z"
         style="color:#000000;display:inline;overflow:visible;visibility:visible;opacity:0.2;fill:url(#linearGradient4011);fill-opacity:1;fill-rule:nonzero;stroke:none;stroke-width:2;marker:none;enable-background:accumulate" />
      <path
         sodipodi:nodetypes="ssccscs"
         inkscape:connector-curvature="0"
         id="path4013"
         d="m 48,23.03125 c -4.9531,0 -8.96875,4.01565 -8.96875,8.96875 v 8 h 0.78125 v -8 c 0,-4.814493 3.801349,-8.752635 8.5625,-8.96875 -0.126641,-0.0053 -0.247055,0 -0.375,0 z"
         style="color:#000000;display:inline;overflow:visible;visibility:visible;opacity:0.1;fill:#000000;fill-opacity:1;fill-rule:nonzero;stroke:none;stroke-width:2;marker:none;enable-background:accumulate" />
      <path
         inkscape:connector-curvature="0"
         id="path4024"
         d="m 48,23.03125 c -0.170961,0 -0.331399,0.02181 -0.5,0.03125 4.716118,0.2641 8.46875,4.155361 8.46875,8.9375 v 8 c 0,4.782139 -3.752632,8.6734 -8.46875,8.9375 0.168601,0.0094 0.329039,0.03125 0.5,0.03125 4.9531,0 8.96875,-4.01565 8.96875,-8.96875 v -8 c 0,-4.9531 -4.01565,-8.96875 -8.96875,-8.96875 z m -1,3 c -3.349468,0 -5.96875,2.619282 -5.96875,5.96875 v 8 c 0,3.349468 2.619282,5.96875 5.96875,5.96875 0.125814,0 0.251347,-0.02396 0.375,-0.03125 C 44.32736,45.637471 42.03125,43.140126 42.03125,40 v -8 c 0,-3.140126 2.29611,-5.637471 5.34375,-5.9375 C 47.251347,26.0552 47.125814,26.03125 47,26.03125 Z"
         style="color:#000000;display:inline;overflow:visible;visibility:visible;opacity:0.15;fill:url(#linearGradient4039);fill-opacity:1;fill-rule:nonzero;stroke:none;stroke-width:2;marker:none;enable-background:accumulate" />
      <path
         inkscape:connector-curvature="0"
         id="path4041"
         d="m 47.75,23.03125 c 4.820388,0.151447 8.6875,4.111609 8.6875,8.96875 v 8 c 0,4.857141 -3.867112,8.817303 -8.6875,8.96875 0.08472,0.0024 0.164703,0 0.25,0 4.9531,0 8.96875,-4.01565 8.96875,-8.96875 v -8 c 0,-4.9531 -4.01565,-8.96875 -8.96875,-8.96875 -0.0853,0 -0.165275,-0.0024 -0.25,0 z m -0.28125,3 C 44.119282,26.03125 41.5,28.650532 41.5,32 v 8 c 0,3.349468 2.619282,5.96875 5.96875,5.96875 0.09397,0 0.188472,0.0041 0.28125,0 C 44.520715,45.842516 42.03125,43.26594 42.03125,40 v -8 c 0,-3.26594 2.489465,-5.842516 5.71875,-5.96875 -0.09278,-0.0041 -0.187281,0 -0.28125,0 z"
         style="color:#000000;display:inline;overflow:visible;visibility:visible;opacity:0.2;fill:#000000;fill-opacity:1;fill-rule:nonzero;stroke:none;stroke-width:2;marker:none;enable-background:accumulate" />
      <path
         sodipodi:nodetypes="ccccccccccccccccccccccccccccccccccccccccccccccccccccccccccccccccccccc"
         inkscape:connector-curvature="0"
         id="rect4052"
         d="M 47.96875,24.5 48.75,24.53125 h 0.03125 l 0.71875,0.125 h 0.03125 l 0.6875,0.1875 H 50.25 l 0.65625,0.21875 0.03125,0.03125 0.625,0.28125 0.03125,0.03125 0.59375,0.34375 0.03125,0.03125 0.15625,0.125 L 52.84375,26 53.15625,25.65625 53.0625,25.1875 52.96875,25.125 52.78125,24.96875 52.75,24.9375 52.09375,24.53125 52.03125,24.5 51.34375,24.1875 51.28125,24.15625 50.5625,23.875 H 50.5 l -0.75,-0.1875 -0.0625,-0.03125 -0.78125,-0.125 h -0.0625 L 48.03125,23.5 c -0.956312,-0.06672 -1.152251,1.088959 -0.0625,1 z m -4,0 -0.0625,0.03125 -0.65625,0.40625 -0.03125,0.03125 -0.625,0.4375 L 42.5625,25.4375 42,25.96875 41.96875,26 l -0.53125,0.5625 -0.03125,0.03125 -0.4375,0.625 -0.03125,0.03125 -0.40625,0.65625 -0.03125,0.0625 -0.28125,0.625 V 29.0625 L 40.625,29.3125 41.0625,29.125 41.125,29 41.375,28.4375 41.40625,28.40625 41.75,27.8125 41.78125,27.78125 42.1875,27.25 l 0.03125,-0.03125 0.46875,-0.5 h 0.03125 V 26.6875 l 0.5,-0.46875 L 43.25,26.1875 43.78125,25.78125 43.8125,25.75 44.40625,25.40625 44.4375,25.375 45.03125,25.125 C 45.742924,24.657964 45,24 44.59375,24.21875 Z"
         style="color:#000000;font-style:normal;font-variant:normal;font-weight:normal;font-stretch:normal;font-size:medium;line-height:normal;font-family:Sans;-inkscape-font-specification:Sans;text-indent:0;text-align:start;text-decoration:none;text-decoration-line:none;letter-spacing:normal;word-spacing:normal;text-transform:none;writing-mode:lr-tb;direction:ltr;baseline-shift:baseline;text-anchor:start;display:inline;overflow:visible;visibility:visible;opacity:0.3;fill:#ffffff;fill-opacity:1;stroke:none;stroke-width:1;marker:none;enable-background:accumulate" />
      <path
         d="m 48.017578,23.695312 c -0.3993,-0.02786 -0.573944,0.187024 -0.591797,0.335938 -0.0089,0.07446 0.0105,0.132508 0.08008,0.1875 0.06958,0.05499 0.20846,0.107385 0.447266,0.08789 a 0.19490146,0.19490146 0 0 1 0.02344,-0.002 l 0.777344,0.03125 h 0.02734 a 0.19490146,0.19490146 0 0 1 0.0332,0.0039 l 0.703125,0.121094 h 0.01367 a 0.19490146,0.19490146 0 0 1 0.05078,0.0078 l 0.66211,0.179688 H 50.25 a 0.19490146,0.19490146 0 0 1 0.0625,0.0098 l 0.65625,0.21875 a 0.19490146,0.19490146 0 0 1 0.07617,0.04687 l 0.0059,0.0078 0.591797,0.265625 a 0.19490146,0.19490146 0 0 1 0.05859,0.03906 l 0.01172,0.01367 0.572265,0.332031 a 0.19490146,0.19490146 0 0 1 0.04102,0.0293 l 0.02344,0.02539 0.109375,0.08789 0.314454,0.0625 0.171874,-0.189453 -0.05859,-0.292968 -0.02539,-0.01758 a 0.19490146,0.19490146 0 0 1 -0.01758,-0.01172 l -0.1875,-0.15625 a 0.19490146,0.19490146 0 0 1 -0.01367,-0.01172 l -0.01367,-0.01563 -0.630859,-0.390625 -0.05078,-0.02539 -0.683594,-0.310547 a 0.19490146,0.19490146 0 0 1 -0.0078,-0.0039 l -0.05469,-0.02734 -0.675781,-0.263672 H 50.5 a 0.19490146,0.19490146 0 0 1 -0.04687,-0.0059 l -0.75,-0.1875 a 0.19490146,0.19490146 0 0 1 -0.04102,-0.01563 l -0.03516,-0.01758 -0.736328,-0.117188 h -0.04687 a 0.19490146,0.19490146 0 0 1 -0.0078,0 l -0.8125,-0.03125 a 0.19490146,0.19490146 0 0 1 -0.0059,0 z m -3.144531,0.691407 c -0.0768,-0.02538 -0.143675,-0.01969 -0.1875,0.0039 a 0.19490146,0.19490146 0 0 1 -0.01172,0.0059 l -0.621094,0.279297 -0.05078,0.02539 -0.630859,0.390625 -0.01367,0.01563 a 0.19490146,0.19490146 0 0 1 -0.02734,0.02148 l -0.611328,0.427735 -0.01758,0.01953 a 0.19490146,0.19490146 0 0 1 -0.0039,0.0039 l -0.560547,0.529297 -0.02734,0.02734 -0.529297,0.560547 a 0.19490146,0.19490146 0 0 1 -0.0039,0.0039 l -0.01953,0.01758 -0.427735,0.611328 a 0.19490146,0.19490146 0 0 1 -0.02148,0.02734 l -0.01563,0.01367 -0.390625,0.630859 -0.02539,0.05078 -0.261719,0.582032 v 0.318359 l 0.226563,0.140625 0.279297,-0.119141 0.0293,-0.05859 0.248047,-0.558594 a 0.19490146,0.19490146 0 0 1 0.03906,-0.05859 l 0.01367,-0.01172 0.332031,-0.572265 a 0.19490146,0.19490146 0 0 1 0.0293,-0.04102 l 0.02344,-0.02148 0.398437,-0.521485 a 0.19490146,0.19490146 0 0 1 0.01563,-0.01953 l 0.0293,-0.02734 0.466797,-0.498046 a 0.19490146,0.19490146 0 0 1 0.02344,-0.02148 0.19490146,0.19490146 0 0 1 0.002,-0.002 0.19490146,0.19490146 0 0 1 0.01563,-0.01758 l 0.498046,-0.466797 0.02734,-0.0293 a 0.19490146,0.19490146 0 0 1 0.01953,-0.01563 l 0.521485,-0.398437 0.02148,-0.02344 a 0.19490146,0.19490146 0 0 1 0.04102,-0.0293 L 44.287109,25.25 l 0.01172,-0.01367 a 0.19490146,0.19490146 0 0 1 0.0625,-0.04102 l 0.56836,-0.240234 c 0.13686,-0.09302 0.187452,-0.175773 0.199218,-0.236328 0.01214,-0.06247 -0.005,-0.124279 -0.05273,-0.1875 -0.04771,-0.06322 -0.126323,-0.119152 -0.203125,-0.144531 z"
         id="path4061"
         style="color:#000000;font-style:normal;font-variant:normal;font-weight:normal;font-stretch:normal;font-size:medium;line-height:normal;font-family:Sans;-inkscape-font-specification:Sans;text-indent:0;text-align:start;text-decoration:none;text-decoration-line:none;letter-spacing:normal;word-spacing:normal;text-transform:none;writing-mode:lr-tb;direction:ltr;baseline-shift:baseline;text-anchor:start;display:inline;overflow:visible;visibility:visible;opacity:0.6;fill:#ffffff;fill-opacity:1;stroke:none;stroke-width:1;marker:none;enable-background:accumulate"
         inkscape:original="M 48.03125 23.5 C 47.074938 23.43328 46.878999 24.588959 47.96875 24.5 L 48.75 24.53125 L 48.78125 24.53125 L 49.5 24.65625 L 49.53125 24.65625 L 50.21875 24.84375 L 50.25 24.84375 L 50.90625 25.0625 L 50.9375 25.09375 L 51.5625 25.375 L 51.59375 25.40625 L 52.1875 25.75 L 52.21875 25.78125 L 52.375 25.90625 L 52.84375 26 L 53.15625 25.65625 L 53.0625 25.1875 L 52.96875 25.125 L 52.78125 24.96875 L 52.75 24.9375 L 52.09375 24.53125 L 52.03125 24.5 L 51.34375 24.1875 L 51.28125 24.15625 L 50.5625 23.875 L 50.5 23.875 L 49.75 23.6875 L 49.6875 23.65625 L 48.90625 23.53125 L 48.84375 23.53125 L 48.03125 23.5 z M 44.59375 24.21875 L 43.96875 24.5 L 43.90625 24.53125 L 43.25 24.9375 L 43.21875 24.96875 L 42.59375 25.40625 L 42.5625 25.4375 L 42 25.96875 L 41.96875 26 L 41.4375 26.5625 L 41.40625 26.59375 L 40.96875 27.21875 L 40.9375 27.25 L 40.53125 27.90625 L 40.5 27.96875 L 40.21875 28.59375 L 40.21875 29.0625 L 40.625 29.3125 L 41.0625 29.125 L 41.125 29 L 41.375 28.4375 L 41.40625 28.40625 L 41.75 27.8125 L 41.78125 27.78125 L 42.1875 27.25 L 42.21875 27.21875 L 42.6875 26.71875 L 42.71875 26.71875 L 42.71875 26.6875 L 43.21875 26.21875 L 43.25 26.1875 L 43.78125 25.78125 L 43.8125 25.75 L 44.40625 25.40625 L 44.4375 25.375 L 45.03125 25.125 C 45.742924 24.657964 45 24 44.59375 24.21875 z "
         inkscape:radius="-0.19488198"
         sodipodi:type="inkscape:offset" />
      <rect
         ry="1"
         rx="1"
         y="38"
         x="36"
         height="6"
         width="24"
         id="rect3138"
         style="color:#000000;display:inline;overflow:visible;visibility:visible;fill:url(#linearGradient3933);fill-opacity:1;fill-rule:nonzero;stroke:none;stroke-width:2;marker:none;enable-background:accumulate" />
      <path
         inkscape:connector-curvature="0"
         id="rect3148"
         d="m 37,38 c -0.554,0 -1,0.446 -1,1 v 1 c 0,-0.554 0.446,-1 1,-1 h 22 c 0.554,0 1,0.446 1,1 v -1 c 0,-0.554 -0.446,-1 -1,-1 z"
         style="color:#000000;display:inline;overflow:visible;visibility:visible;opacity:0.3;fill:#ffffff;fill-opacity:1;fill-rule:nonzero;stroke:none;stroke-width:2;marker:none;enable-background:accumulate" />
      <path
         inkscape:connector-curvature="0"
         id="rect3921"
         d="m 36,42 v 1 c 0,0.554 0.446,1 1,1 h 22 c 0.554,0 1,-0.446 1,-1 v -1 c 0,0.554 -0.446,1 -1,1 H 37 c -0.554,0 -1,-0.446 -1,-1 z"
         style="color:#000000;display:inline;overflow:visible;visibility:visible;opacity:0.15;fill:#a05a2c;fill-opacity:1;fill-rule:nonzero;stroke:none;stroke-width:2;marker:none;enable-background:accumulate" />
      <rect
         style="color:#000000;display:inline;overflow:visible;visibility:visible;fill:url(#linearGradient3945);fill-opacity:1;fill-rule:nonzero;stroke:none;stroke-width:2;marker:none;enable-background:accumulate"
         id="rect3939"
         width="24"
         height="6"
         x="36"
         y="44"
         rx="1"
         ry="1" />
      <path
         inkscape:connector-curvature="0"
         style="color:#000000;display:inline;overflow:visible;visibility:visible;opacity:0.3;fill:#ffffff;fill-opacity:1;fill-rule:nonzero;stroke:none;stroke-width:2;marker:none;enable-background:accumulate"
         d="m 37,44 c -0.554,0 -1,0.446 -1,1 v 1 c 0,-0.554 0.446,-1 1,-1 h 22 c 0.554,0 1,0.446 1,1 v -1 c 0,-0.554 -0.446,-1 -1,-1 z"
         id="path3941" />
      <path
         inkscape:connector-curvature="0"
         style="color:#000000;display:inline;overflow:visible;visibility:visible;opacity:0.15;fill:#a05a2c;fill-opacity:1;fill-rule:nonzero;stroke:none;stroke-width:2;marker:none;enable-background:accumulate"
         d="m 36,48 v 1 c 0,0.554 0.446,1 1,1 h 22 c 0.554,0 1,-0.446 1,-1 v -1 c 0,0.554 -0.446,1 -1,1 H 37 c -0.554,0 -1,-0.446 -1,-1 z"
         id="path3943" />
      <rect
         ry="1"
         rx="1"
         y="50"
         x="36"
         height="6"
         width="24"
         id="rect3947"
         style="color:#000000;display:inline;overflow:visible;visibility:visible;fill:url(#linearGradient3954);fill-opacity:1;fill-rule:nonzero;stroke:none;stroke-width:2;marker:none;enable-background:accumulate" />
      <path
         id="path3949"
         d="m 37,50 c -0.554,0 -1,0.446 -1,1 v 1 c 0,-0.554 0.446,-1 1,-1 h 22 c 0.554,0 1,0.446 1,1 v -1 c 0,-0.554 -0.446,-1 -1,-1 z"
         style="color:#000000;display:inline;overflow:visible;visibility:visible;opacity:0.3;fill:#ffffff;fill-opacity:1;fill-rule:nonzero;stroke:none;stroke-width:2;marker:none;enable-background:accumulate"
         inkscape:connector-curvature="0" />
      <path
         id="path3952"
         d="m 36,54 v 1 c 0,0.554 0.446,1 1,1 h 22 c 0.554,0 1,-0.446 1,-1 v -1 c 0,0.554 -0.446,1 -1,1 H 37 c -0.554,0 -1,-0.446 -1,-1 z"
         style="color:#000000;display:inline;overflow:visible;visibility:visible;opacity:0.15;fill:#a05a2c;fill-opacity:1;fill-rule:nonzero;stroke:none;stroke-width:2;marker:none;enable-background:accumulate"
         inkscape:connector-curvature="0" />
    </g>
  </g>
</svg>
