<?xml version="1.0" encoding="UTF-8" standalone="no"?>
<!-- Created with Inkscape (http://www.inkscape.org/) -->

<svg
   xmlns:dc="http://purl.org/dc/elements/1.1/"
   xmlns:cc="http://creativecommons.org/ns#"
   xmlns:rdf="http://www.w3.org/1999/02/22-rdf-syntax-ns#"
   xmlns:svg="http://www.w3.org/2000/svg"
   xmlns="http://www.w3.org/2000/svg"
   xmlns:xlink="http://www.w3.org/1999/xlink"
   xmlns:sodipodi="http://sodipodi.sourceforge.net/DTD/sodipodi-0.dtd"
   xmlns:inkscape="http://www.inkscape.org/namespaces/inkscape"
   height="300"
   id="svg11300"
   inkscape:export-filename="/home/jimmac/Desktop/wi-fi.png"
   inkscape:export-xdpi="90.000000"
   inkscape:export-ydpi="90.000000"
   inkscape:output_extension="org.inkscape.output.svg.inkscape"
   inkscape:version="0.92.4 (unknown)"
   sodipodi:docname="mail-mark-junk.svg"
   sodipodi:version="0.32"
   style="display:inline;enable-background:new"
   version="1.0"
   width="400">
  <title
     id="title8836">Optical Drive</title>
  <metadata
     id="metadata154">
    <rdf:RDF>
      <cc:Work
         rdf:about="">
        <dc:format>image/svg+xml</dc:format>
        <dc:type
           rdf:resource="http://purl.org/dc/dcmitype/StillImage" />
        <dc:title />
        <dc:creator>
          <cc:Agent>
            <dc:title />
          </cc:Agent>
        </dc:creator>
        <dc:contributor>
          <cc:Agent>
            <dc:title />
          </cc:Agent>
        </dc:contributor>
        <dc:source />
        <cc:license
           rdf:resource="" />
        <dc:subject>
          <rdf:Bag />
        </dc:subject>
      </cc:Work>
    </rdf:RDF>
  </metadata>
  <sodipodi:namedview
     bordercolor="#666666"
     borderopacity="0.25490196"
     fill="#f57900"
     gridtolerance="12"
     guidetolerance="13"
     height="300px"
     id="base"
     inkscape:current-layer="layer2"
     inkscape:cx="388.75294"
     inkscape:cy="132.9147"
     inkscape:document-units="px"
     inkscape:grid-bbox="true"
     inkscape:guide-bbox="true"
     inkscape:pageopacity="0.0"
     inkscape:pageshadow="2"
     inkscape:showpageshadow="false"
     inkscape:snap-bbox="true"
     inkscape:snap-nodes="true"
     inkscape:window-height="966"
     inkscape:window-width="1680"
     inkscape:window-x="0"
     inkscape:window-y="25"
     inkscape:zoom="1"
     objecttolerance="7"
     pagecolor="#ffffff"
     showgrid="false"
     showguides="true"
     stroke="#ef2929"
     width="400px"
     inkscape:window-maximized="1">
    <inkscape:grid
       empspacing="2"
       enabled="true"
       id="grid5883"
       spacingx="0.5"
       spacingy="0.5"
       type="xygrid"
       visible="true"
       originx="0"
       originy="0" />
  </sodipodi:namedview>
  <defs
     id="defs3">
    <linearGradient
       inkscape:collect="always"
       xlink:href="#linearGradient5166"
       id="linearGradient5172"
       x1="19.450956"
       y1="14.463861"
       x2="23.71875"
       y2="48.404987"
       gradientUnits="userSpaceOnUse" />
    <linearGradient
       inkscape:collect="always"
       id="linearGradient5166">
      <stop
         style="stop-color:white;stop-opacity:1;"
         offset="0"
         id="stop5168" />
      <stop
         style="stop-color:white;stop-opacity:0;"
         offset="1"
         id="stop5170" />
    </linearGradient>
    <radialGradient
       inkscape:collect="always"
       xlink:href="#linearGradient5150-0"
       id="radialGradient2968-1"
       gradientUnits="userSpaceOnUse"
       gradientTransform="matrix(1,0,0,0.325103,0,27.44386)"
       cx="24.837126"
       cy="40.663769"
       fx="24.837126"
       fy="40.663769"
       r="21.478369" />
    <linearGradient
       inkscape:collect="always"
       id="linearGradient5150-0">
      <stop
         style="stop-color:black;stop-opacity:1;"
         offset="0"
         id="stop5152-6" />
      <stop
         style="stop-color:black;stop-opacity:0;"
         offset="1"
         id="stop5154-1" />
    </linearGradient>
    <radialGradient
       inkscape:collect="always"
       xlink:href="#linearGradient5188-9"
       id="radialGradient2970-5"
       gradientUnits="userSpaceOnUse"
       gradientTransform="matrix(2.135667,0,0,2.110607,222.46822,40.133154)"
       cx="23.688078"
       cy="14.210698"
       fx="23.688078"
       fy="14.210698"
       r="22.597088" />
    <linearGradient
       id="linearGradient5188-9">
      <stop
         style="stop-color:white;stop-opacity:1;"
         offset="0"
         id="stop5190-4" />
      <stop
         style="stop-color:#aeaea3;stop-opacity:1;"
         offset="1"
         id="stop5192-9" />
    </linearGradient>
    <radialGradient
       inkscape:collect="always"
       xlink:href="#linearGradient5196-9"
       id="radialGradient2972-0"
       gradientUnits="userSpaceOnUse"
       gradientTransform="matrix(1.790269,0,0,1.769263,233.55604,43.852324)"
       cx="20.089987"
       cy="10.853651"
       fx="20.089987"
       fy="10.853651"
       r="22.597088" />
    <linearGradient
       id="linearGradient5196-9">
      <stop
         style="stop-color:#dfe2dc;stop-opacity:1;"
         offset="0"
         id="stop5198-1" />
      <stop
         style="stop-color:#86917a;stop-opacity:1;"
         offset="1"
         id="stop5200-7" />
    </linearGradient>
    <linearGradient
       inkscape:collect="always"
       xlink:href="#linearGradient5162-1"
       id="linearGradient2974-7"
       gradientUnits="userSpaceOnUse"
       gradientTransform="translate(249.36998,55.802294)"
       x1="22.008699"
       y1="36.509514"
       x2="23.585091"
       y2="14.412428" />
    <linearGradient
       id="linearGradient5162-1">
      <stop
         style="stop-color:#babdb6;stop-opacity:1;"
         offset="0"
         id="stop5164-1" />
      <stop
         style="stop-color:white;stop-opacity:1;"
         offset="1"
         id="stop5166-5" />
    </linearGradient>
    <linearGradient
       inkscape:collect="always"
       xlink:href="#linearGradient5162-1"
       id="linearGradient2976-9"
       gradientUnits="userSpaceOnUse"
       gradientTransform="translate(249.36998,55.802294)"
       x1="24.365993"
       y1="20.246058"
       x2="32.600704"
       y2="28.554564" />
    <linearGradient
       inkscape:collect="always"
       xlink:href="#linearGradient5176-7"
       id="linearGradient2978-7"
       gradientUnits="userSpaceOnUse"
       gradientTransform="translate(249.36998,55.802294)"
       x1="25.632622"
       y1="10.611729"
       x2="38.714096"
       y2="18.389904" />
    <linearGradient
       inkscape:collect="always"
       id="linearGradient5176-7">
      <stop
         style="stop-color:black;stop-opacity:1;"
         offset="0"
         id="stop5178-6" />
      <stop
         style="stop-color:black;stop-opacity:0;"
         offset="1"
         id="stop5180-7" />
    </linearGradient>
  </defs>
  <g
     id="layer6"
     inkscape:groupmode="layer"
     inkscape:label="baseplate"
     style="display:none">
    <rect
       height="48"
       id="rect6284"
       inkscape:label="48x48"
       style="fill:#eeeeec;fill-opacity:1;fill-rule:nonzero;stroke:none;stroke-width:2;marker:none;visibility:visible;display:inline;overflow:visible;enable-background:accumulate"
       width="48"
       x="296"
       y="50" />
    <rect
       height="22"
       id="rect6749"
       inkscape:label="22x22"
       style="fill:#eeeeec;fill-opacity:1;fill-rule:nonzero;stroke:none;stroke-width:2;marker:none;visibility:visible;display:inline;overflow:visible;enable-background:accumulate"
       width="22"
       x="303"
       y="177" />
    <rect
       height="16"
       id="rect6833"
       inkscape:label="16x16"
       style="fill:#eeeeec;fill-opacity:1;fill-rule:nonzero;stroke:none;stroke-width:2;marker:none;visibility:visible;display:inline;overflow:visible;enable-background:accumulate"
       width="16"
       x="303"
       y="219" />
    <text
       id="context"
       inkscape:label="context"
       style="font-style:normal;font-weight:normal;line-height:0%;font-family:'Bitstream Vera Sans';display:inline;fill:#000000;fill-opacity:1;stroke:none;enable-background:new"
       x="20.970737"
       xml:space="preserve"
       y="21.513618"><tspan
         id="tspan2716"
         sodipodi:role="line"
         x="20.970737"
         y="21.513618"
         style="font-size:18.30070686px;line-height:1.25">actions</tspan></text>
    <text
       id="icon-name"
       inkscape:label="icon-name"
       style="font-style:normal;font-variant:normal;font-weight:bold;font-stretch:normal;line-height:0%;font-family:'Droid Sans';-inkscape-font-specification:'Droid Sans Bold';text-align:start;writing-mode:lr-tb;text-anchor:start;display:inline;fill:#000000;fill-opacity:1;stroke:none;enable-background:new"
       x="191.97073"
       xml:space="preserve"
       y="21.513618"><tspan
         id="tspan3023"
         sodipodi:role="line"
         x="191.97073"
         y="21.513618"
         style="font-size:18.30070686px;line-height:1.25">mail-mark-junk</tspan></text>
    <path
       transform="translate(-25.353555,-32.538059)"
       sodipodi:type="inkscape:offset"
       inkscape:radius="-0.83777463"
       inkscape:original="M 279.59961 57.839844 L 267.57812 61.375 L 264.57227 68.447266 L 263.51172 66.148438 L 260.50781 66.326172 L 260.50781 69.154297 L 256.9707 65.087891 L 252.19922 70.214844 L 252.19922 77.462891 L 260.50781 84.710938 L 255.20312 87.714844 L 255.38086 90.720703 L 258.38477 93.373047 L 256.61719 96.201172 L 260.33008 97.791016 L 262.98242 95.669922 L 274.82617 96.554688 L 278.53906 101.50391 L 281.89648 96.023438 L 286.13867 98.322266 L 291.79688 97.615234 L 290.38281 94.609375 L 294.27148 90.720703 L 288.79102 84.533203 L 294.09375 85.240234 L 296.39258 83.119141 L 293.38672 83.650391 L 290.20508 78.169922 L 285.60938 77.109375 L 289.32227 75.871094 L 289.49805 72.689453 L 282.25 66.326172 L 279.59961 57.839844 z "
       xlink:href="#path4273"
       style="color:#000000;fill:none;stroke:url(#linearGradient5172);stroke-width:1;stroke-linecap:butt;stroke-linejoin:miter;stroke-miterlimit:4;stroke-opacity:1;stroke-dasharray:none;stroke-dashoffset:0;marker:none;visibility:visible;display:inline;overflow:visible"
       id="path5359"
       d="m 279.03125,58.90625 -10.84375,3.1875 -2.84375,6.65625 a 0.83785841,0.83785841 0 0 1 -1.53125,0.03125 l -0.8125,-1.75 -1.65625,0.09375 0,2.03125 a 0.83785841,0.83785841 0 0 1 -1.46875,0.5625 l -2.9375,-3.375 -3.90625,4.1875 0,6.5625 8.03125,7 a 0.83785841,0.83785841 0 0 1 -0.15625,1.34375 l -4.8125,2.75 0.0937,2.125 2.75,2.4375 a 0.83785841,0.83785841 0 0 1 0.15625,1.0625 L 257.875,95.78125 260.21875,96.8125 262.4375,95 a 0.83785841,0.83785841 0 0 1 0.59375,-0.1875 l 11.84375,0.90625 a 0.83785841,0.83785841 0 0 1 0.59375,0.34375 l 2.96875,3.96875 2.75,-4.4375 a 0.83785841,0.83785841 0 0 1 1.125,-0.3125 l 4,2.15625 4.21875,-0.53125 -0.90625,-1.9375 a 0.83785841,0.83785841 0 0 1 0.15625,-0.9375 l 3.34375,-3.34375 -4.96875,-5.59375 a 0.83785841,0.83785841 0 0 1 0.75,-1.40625 l 3.84375,0.53125 a 0.83785841,0.83785841 0 0 1 -0.0937,-0.15625 l -2.96875,-5.1875 -4.28125,-0.96875 a 0.83785841,0.83785841 0 0 1 -0.0625,-1.59375 l 3.15625,-1.03125 0.125,-2.25 -6.9375,-6.09375 a 0.83785841,0.83785841 0 0 1 -0.25,-0.375 l -2.40625,-7.65625 z"
       inkscape:href="#path4273" />
    <rect
       y="126"
       x="296"
       width="32"
       style="fill:#eeeeec;fill-opacity:1;fill-rule:nonzero;stroke:none;stroke-width:2;marker:none;visibility:visible;display:inline;overflow:visible;enable-background:accumulate"
       inkscape:label="32x32"
       id="rect2956"
       height="32" />
  </g>
  <g
     id="layer2"
     inkscape:groupmode="layer"
     inkscape:label="small sizes"
     style="display:inline">
    <g
       id="g32"
       style="display:inline;enable-background:new"
       transform="translate(303,126)" />
    <g
       style="display:inline;enable-background:new"
       id="g2958"
       transform="translate(46.35355,-5.911613)">
      <path
         transform="matrix(1.106996,0,0,1.106996,246.0054,50.390778)"
         d="m 46.315495,40.663769 c 0,3.856427 -9.616194,6.982679 -21.478369,6.982679 -11.862176,0 -21.478369,-3.126252 -21.478369,-6.982679 0,-3.856428 9.616193,-6.98268 21.478369,-6.98268 11.862175,0 21.478369,3.126252 21.478369,6.98268 z"
         sodipodi:ry="6.9826794"
         sodipodi:rx="21.478369"
         sodipodi:cy="40.663769"
         sodipodi:cx="24.837126"
         id="path4275"
         style="opacity:0.3258427;color:#000000;fill:url(#radialGradient2968-1);fill-opacity:1;fill-rule:evenodd;stroke:none;stroke-width:1;marker:none;visibility:visible;display:inline;overflow:visible"
         sodipodi:type="arc" />
      <path
         id="path4273"
         d="m 258.38559,93.37247 -1.76777,2.82843 3.71231,1.59099 2.65165,-2.12132 11.84404,0.88388 3.71231,4.94975 3.35876,-5.48008 4.24264,2.2981 5.65685,-0.70711 -1.41421,-3.0052 3.88909,-3.88909 -5.48008,-6.18719 5.3033,0.70711 2.2981,-2.12132 -3.00521,0.53033 -3.18198,-5.48008 -4.59619,-1.06066 3.71231,-1.23743 0.17678,-3.18198 -7.24785,-6.363965 -2.65165,-8.485282 -12.02081,3.535534 -3.00521,7.071068 -1.06066,-2.298097 -3.0052,0.176777 0,2.828425 -3.53553,-4.065862 -4.77298,5.126522 0,7.24785 8.30851,7.24784 -5.3033,3.00521 0.17677,3.0052 3.00521,2.65165 z"
         style="color:#000000;fill:url(#radialGradient2970-5);fill-opacity:1;fill-rule:evenodd;stroke:url(#radialGradient2972-0);stroke-width:1;stroke-linecap:butt;stroke-linejoin:miter;stroke-miterlimit:4;stroke-opacity:1;stroke-dasharray:none;stroke-dashoffset:0;marker:none;visibility:visible;display:inline;overflow:visible" />
      <path
         id="path5158"
         d="m 268.81541,78.52323 -0.88388,6.54073 2.12132,3.35876 -4.59619,1.41422 -2.65165,5.3033 12.02081,0.88388 2.82843,4.06586 2.29809,-6.18718 -4.41941,-2.82843 -6.71752,1.94455 2.65165,-3.53554 -1.41421,-6.18718 -1.23744,-4.77297 z"
         style="opacity:0.76966289;color:#000000;fill:url(#linearGradient2974-7);fill-opacity:1;fill-rule:evenodd;stroke:none;stroke-width:1;marker:none;visibility:visible;display:inline;overflow:visible" />
      <path
         id="path5160"
         d="m 269.87607,79.58389 4.41942,6.89429 7.24785,-4.94975 4.41941,2.47487 3.53554,-3.0052 3.18198,2.82843 -3.00521,-4.94975 -6.89429,-1.59099 -8.66206,-4.24264 c 0,0 -12.37436,3.71231 -11.66726,3.71231 0.70711,0 10.25305,0.17678 10.25305,0.17678 l 1.59099,-2.2981 4.24264,1.94454 -8.66206,3.00521 z"
         style="opacity:0.61797755;color:#000000;fill:url(#linearGradient2976-9);fill-opacity:1;fill-rule:evenodd;stroke:none;stroke-width:1;marker:none;visibility:visible;display:inline;overflow:visible" />
      <path
         id="path5172"
         d="m 278.89168,59.254567 -10.42982,3.535534 -1.41421,3.889087 6.0104,4.242642 5.65686,-5.480079 0.17677,-6.187184 z"
         style="color:#000000;fill:#ffffff;fill-opacity:1;fill-rule:evenodd;stroke:none;stroke-width:1;marker:none;visibility:visible;display:inline;overflow:visible" />
      <path
         id="path5174"
         d="m 279.06846,59.60812 2.2981,7.424621 4.24264,3.712309 -8.66206,-1.944542 c 0,0 -2.47487,2.828432 -1.41421,2.828432 1.06066,0 12.55114,1.41421 12.55114,1.41421 l -0.17677,2.2981 -16.26346,-3.00521 7.07107,-6.540735 0.35355,-6.187185 z"
         style="opacity:0.13483145;color:#000000;fill:url(#linearGradient2978-7);fill-opacity:1;fill-rule:evenodd;stroke:none;stroke-width:1;marker:none;visibility:visible;display:inline;overflow:visible" />
      <path
         id="path5184"
         d="m 256.7946,70.03795 -0.88389,8.83883 1.94455,-6.01041 5.12652,1.59099 1.23744,-2.65165 6.18718,0.88389 1.41422,-1.23744 -9.01561,-0.35355 -0.88389,2.47487 -3.88908,-1.94454 -1.23744,-1.59099 z"
         style="color:#000000;fill:#ffffff;fill-opacity:1;fill-rule:evenodd;stroke:none;stroke-width:1;marker:none;visibility:visible;display:inline;overflow:visible" />
      <path
         id="path5186"
         d="m 271.82062,83.11942 3.0052,3.53554 6.89429,-4.5962 4.24264,2.2981 6.89429,6.54074 -7.60139,-5.83364 -3.71231,-1.06066 -7.24785,4.94975 -2.47487,-5.83363 z"
         style="color:#000000;fill:#ffffff;fill-opacity:1;fill-rule:evenodd;stroke:none;stroke-width:1;marker:none;visibility:visible;display:inline;overflow:visible" />
    </g>
    <image
       style="display:inline;enable-background:new"
       y="126"
       x="296"
       id="image2924"
       height="32"
       width="32"
       xlink:href="file:///home/hbons/.cache/.fr-vhiaz5/tango-icon-theme-0.8.90/32x32/actions/mail-mark-junk.png" />
    <image
       style="display:inline;enable-background:new"
       y="177"
       x="303"
       id="image2938"
       height="22"
       width="22"
       xlink:href="file:///home/hbons/.cache/.fr-PfuGB0/tango-icon-theme-0.8.90/22x22/actions/mail-mark-junk.png" />
    <image
       style="display:inline;enable-background:new"
       y="219"
       x="303"
       id="image2952"
       height="16"
       width="16"
       xlink:href="file:///home/hbons/.cache/.fr-8zwR1v/tango-icon-theme-0.8.90/16x16/actions/mail-mark-junk.png" />
  </g>
  <g
     id="layer4"
     inkscape:groupmode="layer"
     inkscape:label="hires"
     style="display:inline" />
</svg>
