<?xml version="1.0" encoding="UTF-8" standalone="no"?>
<!-- Created with Inkscape (http://www.inkscape.org/) -->

<svg
   xmlns:dc="http://purl.org/dc/elements/1.1/"
   xmlns:cc="http://creativecommons.org/ns#"
   xmlns:rdf="http://www.w3.org/1999/02/22-rdf-syntax-ns#"
   xmlns:svg="http://www.w3.org/2000/svg"
   xmlns="http://www.w3.org/2000/svg"
   xmlns:xlink="http://www.w3.org/1999/xlink"
   xmlns:sodipodi="http://sodipodi.sourceforge.net/DTD/sodipodi-0.dtd"
   xmlns:inkscape="http://www.inkscape.org/namespaces/inkscape"
   width="96"
   height="96"
   id="svg2"
   sodipodi:version="0.32"
   inkscape:version="0.47 r22583"
   version="1.0"
   sodipodi:docname="notification-network-wireless-full.svg"
   inkscape:output_extension="org.inkscape.output.svg.inkscape"
   style="display:inline">
  <defs
     id="defs4">
    <linearGradient
       inkscape:collect="always"
       id="linearGradient3713">
      <stop
         style="stop-color:#ffffff;stop-opacity:1;"
         offset="0"
         id="stop3715" />
      <stop
         style="stop-color:#ffffff;stop-opacity:0;"
         offset="1"
         id="stop3717" />
    </linearGradient>
    <linearGradient
       id="linearGradient3295">
      <stop
         style="stop-color:#559829;stop-opacity:1;"
         offset="0"
         id="stop3297" />
      <stop
         style="stop-color:#86c837;stop-opacity:1;"
         offset="1"
         id="stop3299" />
    </linearGradient>
    <linearGradient
       id="linearGradient3287">
      <stop
         style="stop-color:#cd0000;stop-opacity:1;"
         offset="0"
         id="stop3289" />
      <stop
         style="stop-color:#e55300;stop-opacity:1;"
         offset="1"
         id="stop3291" />
    </linearGradient>
    <linearGradient
       id="linearGradient3279">
      <stop
         style="stop-color:#f08e00;stop-opacity:1;"
         offset="0"
         id="stop3281" />
      <stop
         style="stop-color:#ffd200;stop-opacity:1;"
         offset="1"
         id="stop3283" />
    </linearGradient>
    <linearGradient
       id="linearGradient3271">
      <stop
         style="stop-color:#395d93;stop-opacity:1;"
         offset="0"
         id="stop3273" />
      <stop
         style="stop-color:#6e92c7;stop-opacity:1;"
         offset="1"
         id="stop3275" />
    </linearGradient>
    <linearGradient
       inkscape:collect="always"
       id="linearGradient3327">
      <stop
         style="stop-color:#000000;stop-opacity:1;"
         offset="0"
         id="stop3330" />
      <stop
         style="stop-color:#000000;stop-opacity:0;"
         offset="1"
         id="stop3333" />
    </linearGradient>
    <linearGradient
       inkscape:collect="always"
       xlink:href="#linearGradient3327"
       id="linearGradient3335"
       x1="11.375"
       y1="22"
       x2="11.375"
       y2="-9.817296"
       gradientUnits="userSpaceOnUse" />
    <inkscape:perspective
       sodipodi:type="inkscape:persp3d"
       inkscape:vp_x="0 : 11 : 1"
       inkscape:vp_y="0 : 1000 : 0"
       inkscape:vp_z="22 : 11 : 1"
       inkscape:persp3d-origin="11 : 7.3333333 : 1"
       id="perspective102" />
    <linearGradient
       id="linearGradient4081">
      <stop
         style="stop-color:#aaaaaa;stop-opacity:1;"
         offset="0"
         id="stop4083" />
      <stop
         style="stop-color:#f0f0f0;stop-opacity:1;"
         offset="1"
         id="stop4085" />
    </linearGradient>
    <linearGradient
       id="linearGradient4057">
      <stop
         style="stop-color:#816647;stop-opacity:1;"
         offset="0"
         id="stop4059" />
      <stop
         style="stop-color:#a6845d;stop-opacity:1;"
         offset="1"
         id="stop4061" />
    </linearGradient>
    <linearGradient
       id="linearGradient3929">
      <stop
         style="stop-color:#000000;stop-opacity:1;"
         offset="0"
         id="stop3931" />
      <stop
         style="stop-color:#000000;stop-opacity:0;"
         offset="1"
         id="stop3933" />
    </linearGradient>
    <linearGradient
       inkscape:collect="always"
       xlink:href="#linearGradient3929"
       id="linearGradient4051"
       x1="9.494998"
       y1="15.516565"
       x2="9.494998"
       y2="-4.1786065"
       gradientUnits="userSpaceOnUse" />
    <linearGradient
       inkscape:collect="always"
       xlink:href="#linearGradient4057"
       id="linearGradient4063"
       x1="9.17138"
       y1="21.000002"
       x2="9.17138"
       y2="0.97239029"
       gradientUnits="userSpaceOnUse" />
    <linearGradient
       inkscape:collect="always"
       xlink:href="#linearGradient4081"
       id="linearGradient4089"
       x1="6.101758"
       y1="154.58195"
       x2="6.101758"
       y2="36.995476"
       gradientUnits="userSpaceOnUse" />
    <linearGradient
       inkscape:collect="always"
       xlink:href="#linearGradient4081"
       id="linearGradient4103"
       gradientUnits="userSpaceOnUse"
       x1="6.101758"
       y1="154.58195"
       x2="6.101758"
       y2="36.995476" />
    <linearGradient
       inkscape:collect="always"
       xlink:href="#linearGradient4081"
       id="linearGradient4105"
       gradientUnits="userSpaceOnUse"
       x1="6.101758"
       y1="154.58195"
       x2="6.101758"
       y2="36.995476" />
    <linearGradient
       inkscape:collect="always"
       xlink:href="#linearGradient4081"
       id="linearGradient4107"
       gradientUnits="userSpaceOnUse"
       x1="6.101758"
       y1="154.58195"
       x2="6.101758"
       y2="36.995476" />
    <linearGradient
       inkscape:collect="always"
       xlink:href="#linearGradient4081"
       id="linearGradient4109"
       gradientUnits="userSpaceOnUse"
       x1="6.101758"
       y1="154.58195"
       x2="6.101758"
       y2="36.995476" />
    <linearGradient
       inkscape:collect="always"
       xlink:href="#linearGradient4081"
       id="linearGradient4111"
       gradientUnits="userSpaceOnUse"
       x1="6.101758"
       y1="154.58195"
       x2="6.101758"
       y2="36.995476" />
    <linearGradient
       inkscape:collect="always"
       xlink:href="#linearGradient4081"
       id="linearGradient4113"
       gradientUnits="userSpaceOnUse"
       x1="6.101758"
       y1="154.58195"
       x2="6.101758"
       y2="36.995476" />
    <linearGradient
       inkscape:collect="always"
       xlink:href="#linearGradient4081"
       id="linearGradient4115"
       gradientUnits="userSpaceOnUse"
       x1="6.101758"
       y1="154.58195"
       x2="6.101758"
       y2="36.995476" />
    <linearGradient
       inkscape:collect="always"
       xlink:href="#linearGradient4081"
       id="linearGradient4117"
       gradientUnits="userSpaceOnUse"
       x1="6.101758"
       y1="154.58195"
       x2="6.101758"
       y2="36.995476" />
    <linearGradient
       inkscape:collect="always"
       xlink:href="#linearGradient4081"
       id="linearGradient4119"
       gradientUnits="userSpaceOnUse"
       x1="6.101758"
       y1="154.58195"
       x2="6.101758"
       y2="36.995476" />
    <linearGradient
       inkscape:collect="always"
       xlink:href="#linearGradient4081"
       id="linearGradient4121"
       gradientUnits="userSpaceOnUse"
       x1="6.101758"
       y1="154.58195"
       x2="6.101758"
       y2="36.995476" />
    <linearGradient
       inkscape:collect="always"
       xlink:href="#linearGradient4081"
       id="linearGradient4123"
       gradientUnits="userSpaceOnUse"
       x1="6.101758"
       y1="154.58195"
       x2="6.101758"
       y2="36.995476" />
    <linearGradient
       inkscape:collect="always"
       xlink:href="#linearGradient4081"
       id="linearGradient4125"
       gradientUnits="userSpaceOnUse"
       x1="6.101758"
       y1="154.58195"
       x2="6.101758"
       y2="36.995476" />
    <linearGradient
       inkscape:collect="always"
       xlink:href="#linearGradient4081"
       id="linearGradient4127"
       gradientUnits="userSpaceOnUse"
       x1="6.101758"
       y1="154.58195"
       x2="6.101758"
       y2="36.995476" />
    <linearGradient
       inkscape:collect="always"
       xlink:href="#linearGradient4081"
       id="linearGradient4129"
       gradientUnits="userSpaceOnUse"
       x1="6.101758"
       y1="154.58195"
       x2="6.101758"
       y2="36.995476" />
    <linearGradient
       inkscape:collect="always"
       xlink:href="#linearGradient4081"
       id="linearGradient4132"
       gradientUnits="userSpaceOnUse"
       x1="6.101758"
       y1="154.58195"
       x2="6.101758"
       y2="36.995476"
       gradientTransform="matrix(0.1317916,0,0,0.1317916,11.619896,-1.9882468)" />
    <linearGradient
       inkscape:collect="always"
       xlink:href="#linearGradient4081"
       id="linearGradient4141"
       gradientUnits="userSpaceOnUse"
       x1="6.101758"
       y1="154.58195"
       x2="6.101758"
       y2="36.995476"
       gradientTransform="matrix(0.1317916,0,0,0.1317916,11.619896,-1.9882468)" />
    <linearGradient
       inkscape:collect="always"
       xlink:href="#linearGradient4081"
       id="linearGradient4148"
       gradientUnits="userSpaceOnUse"
       x1="6.101758"
       y1="154.58195"
       x2="6.101758"
       y2="36.995476"
       gradientTransform="matrix(0.1317916,0,0,0.1317916,11.619896,-1.9882468)" />
    <linearGradient
       inkscape:collect="always"
       xlink:href="#linearGradient4081"
       id="linearGradient4158"
       gradientUnits="userSpaceOnUse"
       x1="6.101758"
       y1="154.58195"
       x2="6.101758"
       y2="36.995476"
       gradientTransform="matrix(0.1317916,0,0,0.1317916,11.619896,-1.9882468)" />
    <linearGradient
       inkscape:collect="always"
       xlink:href="#linearGradient4081"
       id="linearGradient4180"
       gradientUnits="userSpaceOnUse"
       x1="6.101758"
       y1="154.58195"
       x2="6.101758"
       y2="36.995476" />
    <linearGradient
       inkscape:collect="always"
       xlink:href="#linearGradient4081"
       id="linearGradient4182"
       gradientUnits="userSpaceOnUse"
       gradientTransform="matrix(0.1317916,0,0,0.1317916,11.619896,-1.9882468)"
       x1="6.101758"
       y1="154.58195"
       x2="6.101758"
       y2="36.995476" />
    <linearGradient
       inkscape:collect="always"
       xlink:href="#linearGradient4081"
       id="linearGradient4184"
       gradientUnits="userSpaceOnUse"
       x1="6.101758"
       y1="154.58195"
       x2="6.101758"
       y2="36.995476" />
    <linearGradient
       inkscape:collect="always"
       xlink:href="#linearGradient4081"
       id="linearGradient4186"
       gradientUnits="userSpaceOnUse"
       gradientTransform="matrix(0.1317916,0,0,0.1317916,11.619896,-1.9882468)"
       x1="6.101758"
       y1="154.58195"
       x2="6.101758"
       y2="36.995476" />
    <linearGradient
       inkscape:collect="always"
       xlink:href="#linearGradient4081"
       id="linearGradient2480"
       gradientUnits="userSpaceOnUse"
       gradientTransform="matrix(0.1256322,0,0,0.1256322,11.921746,-1.0005124)"
       x1="6.101758"
       y1="154.58195"
       x2="6.101758"
       y2="36.995476" />
    <linearGradient
       inkscape:collect="always"
       xlink:href="#linearGradient4081"
       id="linearGradient2483"
       gradientUnits="userSpaceOnUse"
       gradientTransform="matrix(0.1256322,0,0,0.1256322,11.921746,-1.0005124)"
       x1="6.101758"
       y1="154.58195"
       x2="6.101758"
       y2="36.995476" />
    <linearGradient
       inkscape:collect="always"
       xlink:href="#linearGradient4081"
       id="linearGradient2489"
       gradientUnits="userSpaceOnUse"
       gradientTransform="matrix(0.1256322,0,0,0.1256322,11.921746,-1.0005124)"
       x1="6.101758"
       y1="154.58195"
       x2="6.101758"
       y2="36.995476" />
    <linearGradient
       inkscape:collect="always"
       xlink:href="#linearGradient4081"
       id="linearGradient2495"
       gradientUnits="userSpaceOnUse"
       gradientTransform="matrix(0.1256322,0,0,0.1256322,11.921746,-1.0005124)"
       x1="6.101758"
       y1="154.58195"
       x2="6.101758"
       y2="36.995476" />
    <linearGradient
       inkscape:collect="always"
       xlink:href="#linearGradient4081"
       id="linearGradient2498"
       gradientUnits="userSpaceOnUse"
       gradientTransform="matrix(0.1256322,0,0,0.1256322,11.921746,-1.0005124)"
       x1="6.101758"
       y1="154.58195"
       x2="6.101758"
       y2="36.995476" />
    <linearGradient
       inkscape:collect="always"
       xlink:href="#linearGradient4081"
       id="linearGradient2501"
       gradientUnits="userSpaceOnUse"
       gradientTransform="matrix(0.1256322,0,0,0.1256322,11.921746,-1.0005124)"
       x1="6.101758"
       y1="154.58195"
       x2="6.101758"
       y2="36.995476" />
    <linearGradient
       inkscape:collect="always"
       xlink:href="#linearGradient4081"
       id="linearGradient2504"
       gradientUnits="userSpaceOnUse"
       gradientTransform="matrix(0.1256322,0,0,0.1256322,11.921746,-1.0005124)"
       x1="6.101758"
       y1="154.58195"
       x2="6.101758"
       y2="36.995476" />
    <linearGradient
       inkscape:collect="always"
       xlink:href="#linearGradient4081"
       id="linearGradient2506"
       gradientUnits="userSpaceOnUse"
       x1="6.101758"
       y1="154.58195"
       x2="6.101758"
       y2="36.995476" />
    <linearGradient
       inkscape:collect="always"
       xlink:href="#linearGradient4081"
       id="linearGradient2508"
       gradientUnits="userSpaceOnUse"
       gradientTransform="matrix(0.1317916,0,0,0.1317916,11.619896,-1.9882468)"
       x1="6.101758"
       y1="154.58195"
       x2="6.101758"
       y2="36.995476" />
    <linearGradient
       inkscape:collect="always"
       xlink:href="#linearGradient4081"
       id="linearGradient2510"
       gradientUnits="userSpaceOnUse"
       gradientTransform="matrix(0.1317916,0,0,0.1317916,11.619896,-1.9882468)"
       x1="6.101758"
       y1="154.58195"
       x2="6.101758"
       y2="36.995476" />
    <clipPath
       clipPathUnits="userSpaceOnUse"
       id="clipPath4974">
      <path
         id="path4976"
         d="M 16.625,2 C 15.93281,2.046173 15.13978,2.350316 14.5,2.875 13.716105,3.517873 13.079371,5.1522168 13.25,6.0625 13.337976,6.531842 13.692147,7.1029241 14.03125,7.28125 14.662734,7.613335 15.813682,7.0624791 16.875,5.9375 18.021489,4.722239 18.547995,3.383178 18.15625,2.625 17.915497,2.159052 17.31719,1.953827 16.625,2 z M 10.96875,2.71875 C 10.005789,2.719616 9.496306,3.3967078 9.5,4.6875 c 0.00253,0.88392 0.31322,1.6791318 0.71875,1.875 0.301512,0.145631 0.309051,0.1320361 0.6875,0 C 11.533114,6.343793 12.122053,4.8839409 12,3.90625 11.900109,3.106091 11.556193,2.7182209 10.96875,2.71875 z m -3.8125,1.3125 C 6.976067,4.0573035 6.795347,4.173262 6.625,4.34375 6.281636,4.687396 6.277056,4.8747068 6.28125,5.53125 6.286196,6.305553 6.475145,6.7277249 7,7.28125 7.392601,7.695296 7.675716,7.7200481 8.03125,7.34375 8.416388,6.936117 8.535971,6.296057 8.40625,5.59375 8.208416,4.5226825 7.696799,3.9530895 7.15625,4.03125 z M 4.46875,6.375 C 4.281799,6.4054104 4.1133,6.5115553 3.9375,6.6875 3.476154,7.14923 3.798831,8.4188978 4.53125,9.0625 5.405425,9.830669 6.111327,9.1273309 5.8125,7.78125 5.599846,6.8233425 5.029603,6.2837687 4.46875,6.375 z M 12.5,8.0625 C 11.88094,8.0518483 11.187196,8.1034691 10.46875,8.25 8.61799,8.627471 7.13709,9.3254488 6.1875,10.28125 5.640611,10.831715 5.327697,11.341306 5.0625,12.125 c -0.641919,1.896963 0.546896,4.595678 2.8125,6.4375 0.844088,0.686203 1.359152,0.993313 2.21875,1.28125 0.445736,0.149308 0.799163,0.183992 1.625,0.15625 0.946716,-0.03181 1.139252,-0.07408 1.75,-0.375 0.895036,-0.440989 1.909553,-1.461035 2.34375,-2.34375 0.264885,-0.5385 0.307321,-0.768628 0.28125,-1.21875 -0.04452,-0.768578 -0.342658,-0.977756 -1.3125,-0.96875 -1.38452,0.01285 -1.965756,0.333932 -2.25,1.3125 -0.21469,0.739118 -0.452038,1 -0.9375,1 -0.769368,0 -1.5625,-0.611791 -1.5625,-1.25 0,-0.443994 0.715313,-1.10577 2.5,-2.3125 2.514116,-1.69994 3.378489,-2.734111 3.25,-3.875 C 15.64852,8.7901993 14.35718,8.0944552 12.5,8.0625 z"
         style="fill:#ffffff;fill-opacity:1;stroke:none" />
    </clipPath>
    <clipPath
       clipPathUnits="userSpaceOnUse"
       id="clipPath4995">
      <path
         style="fill:#ffffff;fill-opacity:1;fill-rule:nonzero;stroke:none;display:inline"
         d="M 30,0 30,22 52,22 52,0 30,0 z M 46.625,2 C 47.31719,1.953827 47.915497,2.159052 48.15625,2.625 48.547995,3.383178 48.021489,4.722239 46.875,5.9375 45.813682,7.0624791 44.662734,7.613335 44.03125,7.28125 43.692147,7.1029241 43.337976,6.531842 43.25,6.0625 43.079371,5.1522168 43.716105,3.517873 44.5,2.875 45.13978,2.350316 45.93281,2.046173 46.625,2 z m -5.65625,0.71875 c 0.587443,-5.291e-4 0.931359,0.387341 1.03125,1.1875 0.122053,0.9776909 -0.466886,2.437543 -1.09375,2.65625 -0.378449,0.1320361 -0.385988,0.145631 -0.6875,0 C 39.81322,6.3666318 39.502528,5.57142 39.5,4.6875 39.496306,3.3967078 40.005789,2.719616 40.96875,2.71875 z m -3.8125,1.3125 c 0.540549,-0.078161 1.052166,0.4914325 1.25,1.5625 0.129721,0.702307 0.01014,1.342367 -0.375,1.75 C 37.675716,7.7200481 37.392601,7.695296 37,7.28125 36.475145,6.7277249 36.286196,6.305553 36.28125,5.53125 36.277056,4.8747068 36.281636,4.687396 36.625,4.34375 36.795347,4.173262 36.976067,4.0573035 37.15625,4.03125 z M 34.46875,6.375 C 35.029603,6.2837687 35.599846,6.8233425 35.8125,7.78125 36.111327,9.1273309 35.405425,9.830669 34.53125,9.0625 33.798831,8.4188978 33.476154,7.14923 33.9375,6.6875 34.1133,6.5115553 34.281799,6.4054104 34.46875,6.375 z M 42.5,8.0625 c 1.85718,0.031955 3.14852,0.7276993 3.28125,1.90625 0.128489,1.140889 -0.735884,2.17506 -3.25,3.875 -1.784687,1.20673 -2.5,1.868506 -2.5,2.3125 0,0.638209 0.793132,1.25 1.5625,1.25 0.485462,0 0.72281,-0.260882 0.9375,-1 0.284244,-0.978568 0.86548,-1.299646 2.25,-1.3125 0.969842,-0.009 1.267977,0.200172 1.3125,0.96875 0.02607,0.450122 -0.01637,0.68025 -0.28125,1.21875 -0.434197,0.882715 -1.448714,1.902761 -2.34375,2.34375 -0.610748,0.300916 -0.803284,0.343192 -1.75,0.375 -0.825837,0.02774 -1.179264,-0.0069 -1.625,-0.15625 C 39.234152,19.555813 38.719088,19.248703 37.875,18.5625 35.609396,16.720678 34.420581,14.021963 35.0625,12.125 35.327697,11.341306 35.640611,10.831715 36.1875,10.28125 37.13709,9.3254488 38.61799,8.627471 40.46875,8.25 41.187196,8.1034691 41.88094,8.0518483 42.5,8.0625 z"
         id="path4997" />
    </clipPath>
    <linearGradient
       inkscape:collect="always"
       xlink:href="#linearGradient4081"
       id="linearGradient5065"
       gradientUnits="userSpaceOnUse"
       x1="11.508813"
       y1="6.667244"
       x2="11.508813"
       y2="2.6882501"
       gradientTransform="translate(-30,-30)" />
    <linearGradient
       inkscape:collect="always"
       xlink:href="#linearGradient4081"
       id="linearGradient5068"
       gradientUnits="userSpaceOnUse"
       x1="17.212025"
       y1="7.3808393"
       x2="17.212025"
       y2="1.9877422"
       gradientTransform="translate(-30,-30)" />
    <linearGradient
       inkscape:collect="always"
       xlink:href="#linearGradient4081"
       id="linearGradient5071"
       gradientUnits="userSpaceOnUse"
       x1="7.3737612"
       y1="7.6049061"
       x2="7.3737612"
       y2="4.0347266"
       gradientTransform="translate(-30,-30)" />
    <linearGradient
       inkscape:collect="always"
       xlink:href="#linearGradient4081"
       id="linearGradient5074"
       gradientUnits="userSpaceOnUse"
       x1="4.9496975"
       y1="9.3934212"
       x2="4.9496975"
       y2="6.3640523"
       gradientTransform="translate(-30,-30)" />
    <linearGradient
       inkscape:collect="always"
       xlink:href="#linearGradient4081"
       id="linearGradient5077"
       gradientUnits="userSpaceOnUse"
       x1="13"
       y1="20"
       x2="13"
       y2="7.9960599"
       gradientTransform="translate(-30,-30)" />
    <linearGradient
       inkscape:collect="always"
       xlink:href="#linearGradient4081"
       id="linearGradient3345"
       gradientUnits="userSpaceOnUse"
       x1="6.8391123"
       y1="16.300354"
       x2="6.8391123"
       y2="6.0528178" />
    <linearGradient
       inkscape:collect="always"
       xlink:href="#linearGradient4081"
       id="linearGradient3355"
       gradientUnits="userSpaceOnUse"
       x1="12.316144"
       y1="18.468353"
       x2="12.316144"
       y2="3.4817097" />
    <linearGradient
       inkscape:collect="always"
       xlink:href="#linearGradient4081"
       id="linearGradient3357"
       gradientUnits="userSpaceOnUse"
       x1="18.764908"
       y1="21"
       x2="18.764908"
       y2="0.96705598" />
    <linearGradient
       inkscape:collect="always"
       xlink:href="#linearGradient4081"
       id="linearGradient3522"
       gradientUnits="userSpaceOnUse"
       x1="6.8391123"
       y1="16.300354"
       x2="6.8391123"
       y2="6.0528178"
       gradientTransform="translate(1,0)" />
    <linearGradient
       inkscape:collect="always"
       xlink:href="#linearGradient4081"
       id="linearGradient3527"
       gradientUnits="userSpaceOnUse"
       gradientTransform="translate(1,30)"
       x1="6.8391123"
       y1="16.300354"
       x2="6.8391123"
       y2="6.0528178" />
    <linearGradient
       inkscape:collect="always"
       xlink:href="#linearGradient4081"
       id="linearGradient3540"
       gradientUnits="userSpaceOnUse"
       gradientTransform="translate(1,30)"
       x1="14.524625"
       y1="17.41902"
       x2="14.524625"
       y2="4.625" />
    <linearGradient
       inkscape:collect="always"
       xlink:href="#linearGradient4081"
       id="linearGradient3542"
       gradientUnits="userSpaceOnUse"
       gradientTransform="translate(1,30)"
       x1="10.50519"
       y1="15.28125"
       x2="10.50519"
       y2="6.7458849" />
    <linearGradient
       inkscape:collect="always"
       xlink:href="#linearGradient4081"
       id="linearGradient3552"
       gradientUnits="userSpaceOnUse"
       gradientTransform="translate(1,0)"
       x1="16.5"
       y1="19.542921"
       x2="16.5"
       y2="2.5" />
    <linearGradient
       inkscape:collect="always"
       xlink:href="#linearGradient4081"
       id="linearGradient3723"
       x1="12"
       y1="19"
       x2="12"
       y2="2.9687805"
       gradientUnits="userSpaceOnUse"
       gradientTransform="translate(1,-1)" />
    <linearGradient
       inkscape:collect="always"
       xlink:href="#linearGradient4081"
       id="linearGradient2902"
       gradientUnits="userSpaceOnUse"
       x1="12"
       y1="19"
       x2="12"
       y2="2.9687805"
       gradientTransform="translate(2,-1)" />
    <linearGradient
       inkscape:collect="always"
       xlink:href="#linearGradient4081"
       id="linearGradient2904"
       gradientUnits="userSpaceOnUse"
       x1="12"
       y1="19"
       x2="12"
       y2="2.9687805"
       gradientTransform="translate(0,-1)" />
    <linearGradient
       inkscape:collect="always"
       xlink:href="#linearGradient4081"
       id="linearGradient2906"
       gradientUnits="userSpaceOnUse"
       x1="12"
       y1="19"
       x2="12"
       y2="2.9687805"
       gradientTransform="translate(-1,-1)" />
    <linearGradient
       inkscape:collect="always"
       xlink:href="#linearGradient4081"
       id="linearGradient2909"
       gradientUnits="userSpaceOnUse"
       gradientTransform="translate(-31,-1)"
       x1="12"
       y1="19"
       x2="12"
       y2="5" />
    <linearGradient
       inkscape:collect="always"
       xlink:href="#linearGradient4081"
       id="linearGradient3689"
       x1="96"
       y1="-2"
       x2="96"
       y2="-82"
       gradientUnits="userSpaceOnUse"
       gradientTransform="translate(-20,16)" />
    <linearGradient
       inkscape:collect="always"
       xlink:href="#linearGradient4081"
       id="linearGradient3691"
       x1="72"
       y1="-2"
       x2="72"
       y2="-66"
       gradientUnits="userSpaceOnUse"
       gradientTransform="translate(-16,16)" />
    <linearGradient
       inkscape:collect="always"
       xlink:href="#linearGradient4081"
       id="linearGradient3693"
       x1="56"
       y1="-2"
       x2="56"
       y2="-50"
       gradientUnits="userSpaceOnUse"
       gradientTransform="translate(-12,16)" />
    <linearGradient
       inkscape:collect="always"
       xlink:href="#linearGradient4081"
       id="linearGradient3695"
       x1="24"
       y1="-2"
       x2="24"
       y2="-34"
       gradientUnits="userSpaceOnUse"
       gradientTransform="translate(-8,16)" />
    <linearGradient
       inkscape:collect="always"
       xlink:href="#linearGradient4081"
       id="linearGradient3737"
       gradientUnits="userSpaceOnUse"
       gradientTransform="translate(-20,90)"
       x1="96"
       y1="-2"
       x2="96"
       y2="-82" />
    <linearGradient
       inkscape:collect="always"
       xlink:href="#linearGradient4081"
       id="linearGradient3740"
       gradientUnits="userSpaceOnUse"
       gradientTransform="translate(-20,90)"
       x1="96"
       y1="-2"
       x2="96"
       y2="-82" />
    <linearGradient
       inkscape:collect="always"
       xlink:href="#linearGradient4081"
       id="linearGradient3744"
       gradientUnits="userSpaceOnUse"
       gradientTransform="translate(-20,18)"
       x1="96"
       y1="-2"
       x2="96"
       y2="-82" />
    <linearGradient
       inkscape:collect="always"
       xlink:href="#linearGradient4081"
       id="linearGradient3755"
       gradientUnits="userSpaceOnUse"
       gradientTransform="translate(-20,90)"
       x1="96"
       y1="-2"
       x2="96"
       y2="-82" />
    <linearGradient
       inkscape:collect="always"
       xlink:href="#linearGradient3713"
       id="linearGradient3719"
       x1="78"
       y1="-66"
       x2="78"
       y2="6.0277724"
       gradientUnits="userSpaceOnUse" />
    <linearGradient
       inkscape:collect="always"
       xlink:href="#linearGradient3713"
       id="linearGradient3727"
       x1="19"
       y1="-18"
       x2="19"
       y2="14.140317"
       gradientUnits="userSpaceOnUse" />
    <linearGradient
       inkscape:collect="always"
       xlink:href="#linearGradient3713"
       id="linearGradient3729"
       x1="37"
       y1="-34"
       x2="37"
       y2="14.010415"
       gradientUnits="userSpaceOnUse" />
    <linearGradient
       inkscape:collect="always"
       xlink:href="#linearGradient3713"
       id="linearGradient3731"
       x1="57"
       y1="-50"
       x2="57"
       y2="14.007812"
       gradientUnits="userSpaceOnUse" />
  </defs>
  <sodipodi:namedview
     id="base"
     pagecolor="#ffffff"
     bordercolor="#e7e7e7"
     borderopacity="1"
     inkscape:pageopacity="0.0"
     inkscape:pageshadow="2"
     inkscape:zoom="4.4040791"
     inkscape:cx="4.8135053"
     inkscape:cy="43.649471"
     inkscape:document-units="px"
     inkscape:current-layer="layer1"
     showgrid="true"
     inkscape:showpageshadow="false"
     showguides="true"
     inkscape:guide-bbox="true"
     inkscape:window-width="1920"
     inkscape:window-height="1023"
     inkscape:window-x="0"
     inkscape:window-y="24"
     inkscape:window-maximized="1"
     borderlayer="true">
    <inkscape:grid
       type="xygrid"
       id="grid3672"
       visible="true"
       enabled="true"
       empspacing="8"
       snapvisiblegridlinesonly="true" />
  </sodipodi:namedview>
  <metadata
     id="metadata7">
    <rdf:RDF>
      <cc:Work
         rdf:about="">
        <dc:format>image/svg+xml</dc:format>
        <dc:type
           rdf:resource="http://purl.org/dc/dcmitype/StillImage" />
      </cc:Work>
    </rdf:RDF>
  </metadata>
  <g
     inkscape:label="Icon"
     inkscape:groupmode="layer"
     id="layer1"
     style="display:inline"
     transform="translate(0,74)">
    <path
       sodipodi:type="inkscape:offset"
       inkscape:radius="0.99824595"
       inkscape:original="M 74 -66.96875 C 70.716909 -66.96875 68.03125 -64.283091 68.03125 -61 L 68.03125 11 C 68.03125 14.283091 70.716909 16.96875 74 16.96875 L 82 16.96875 C 85.283091 16.96875 87.96875 14.283091 87.96875 11 L 87.96875 -61 C 87.96875 -64.283091 85.283091 -66.96875 82 -66.96875 L 74 -66.96875 z M 54 -50.96875 C 50.716909 -50.96875 48.03125 -48.283091 48.03125 -45 L 48.03125 11 C 48.03125 14.283091 50.716909 16.96875 54 16.96875 L 62 16.96875 C 65.283091 16.96875 67.96875 14.283091 67.96875 11 L 67.96875 -45 C 67.96875 -48.283091 65.283091 -50.96875 62 -50.96875 L 54 -50.96875 z M 34 -34.96875 C 30.716909 -34.96875 28.03125 -32.283091 28.03125 -29 L 28.03125 11 C 28.03125 14.283091 30.716909 16.96875 34 16.96875 L 42 16.96875 C 45.283091 16.96875 47.96875 14.283091 47.96875 11 L 47.96875 -29 C 47.96875 -32.283091 45.283091 -34.96875 42 -34.96875 L 34 -34.96875 z M 14 -18.96875 C 10.716909 -18.96875 8.03125 -16.283091 8.03125 -13 L 8.03125 11 C 8.03125 14.283091 10.716909 16.96875 14 16.96875 L 22 16.96875 C 25.283091 16.96875 27.96875 14.283091 27.96875 11 L 27.96875 -13 C 27.96875 -16.283091 25.283091 -18.96875 22 -18.96875 L 14 -18.96875 z "
       style="opacity:0.08;fill:#000000;fill-opacity:1;stroke:none"
       id="path3770"
       d="m 74,-67.96875 c -3.827486,0 -6.96875,3.141264 -6.96875,6.96875 l 0,11.28125 c -1.274027,-1.358769 -3.036218,-2.25 -5.03125,-2.25 l -8,0 c -3.827486,0 -6.96875,3.141264 -6.96875,6.96875 l 0,11.28125 c -1.274027,-1.358769 -3.036218,-2.25 -5.03125,-2.25 l -8,0 c -3.827486,0 -6.96875,3.141264 -6.96875,6.96875 l 0,11.28125 c -1.274027,-1.358769 -3.036218,-2.25 -5.03125,-2.25 l -8,0 c -3.827486,0 -6.96875,3.141264 -6.96875,6.96875 l 0,24 c 0,3.827486 3.141264,6.96875 6.96875,6.96875 l 8,0 c 2.611074,0 4.807585,-1.51241 6,-3.65625 1.192415,2.14384 3.388926,3.65625 6,3.65625 l 8,0 c 2.611074,0 4.807585,-1.51241 6,-3.65625 1.192415,2.14384 3.388926,3.65625 6,3.65625 l 8,0 c 2.611074,0 4.807585,-1.51241 6,-3.65625 1.192415,2.14384 3.388926,3.65625 6,3.65625 l 8,0 c 3.827486,0 6.96875,-3.141264 6.96875,-6.96875 l 0,-72 c 0,-3.827486 -3.141264,-6.96875 -6.96875,-6.96875 l -8,0 z" />
    <path
       sodipodi:type="inkscape:offset"
       inkscape:radius="0.94991022"
       inkscape:original="M 74 -66.03125 C 71.236635 -66.03125 68.96875 -63.763365 68.96875 -61 L 68.96875 11 C 68.96875 13.763365 71.236635 16.03125 74 16.03125 L 82 16.03125 C 84.763365 16.03125 87.03125 13.763365 87.03125 11 L 87.03125 -61 C 87.03125 -63.763365 84.763365 -66.03125 82 -66.03125 L 74 -66.03125 z M 54 -50.03125 C 51.236635 -50.03125 48.96875 -47.763365 48.96875 -45 L 48.96875 11 C 48.96875 13.763365 51.236635 16.03125 54 16.03125 L 62 16.03125 C 64.763365 16.03125 67.03125 13.763365 67.03125 11 L 67.03125 -45 C 67.03125 -47.763365 64.763365 -50.03125 62 -50.03125 L 54 -50.03125 z M 34 -34.03125 C 31.236635 -34.03125 28.96875 -31.763365 28.96875 -29 L 28.96875 11 C 28.96875 13.763365 31.236635 16.03125 34 16.03125 L 42 16.03125 C 44.763365 16.03125 47.03125 13.763365 47.03125 11 L 47.03125 -29 C 47.03125 -31.763365 44.763365 -34.03125 42 -34.03125 L 34 -34.03125 z M 14 -18.03125 C 11.236635 -18.03125 8.96875 -15.763365 8.96875 -13 L 8.96875 11 C 8.96875 13.763365 11.236635 16.03125 14 16.03125 L 22 16.03125 C 24.763365 16.03125 27.03125 13.763365 27.03125 11 L 27.03125 -13 C 27.03125 -15.763365 24.763365 -18.03125 22 -18.03125 L 14 -18.03125 z "
       style="opacity:0.1;fill:#000000;fill-opacity:1;stroke:none"
       id="path3766"
       d="m 74,-66.96875 c -3.283091,0 -5.96875,2.685659 -5.96875,5.96875 l 0,72 c 0,3.283091 2.685659,5.96875 5.96875,5.96875 l 8,0 c 3.283091,0 5.96875,-2.685659 5.96875,-5.96875 l 0,-72 c 0,-3.283091 -2.685659,-5.96875 -5.96875,-5.96875 l -8,0 z m -20,16 c -3.283091,0 -5.96875,2.685659 -5.96875,5.96875 l 0,56 c 0,3.283091 2.685659,5.96875 5.96875,5.96875 l 8,0 c 3.283091,0 5.96875,-2.685659 5.96875,-5.96875 l 0,-56 c 0,-3.283091 -2.685659,-5.96875 -5.96875,-5.96875 l -8,0 z m -20,16 c -3.283091,0 -5.96875,2.685659 -5.96875,5.96875 l 0,40 c 0,3.283091 2.685659,5.96875 5.96875,5.96875 l 8,0 c 3.283091,0 5.96875,-2.685659 5.96875,-5.96875 l 0,-40 c 0,-3.283091 -2.685659,-5.96875 -5.96875,-5.96875 l -8,0 z m -20,16 c -3.283091,0 -5.96875,2.685659 -5.96875,5.96875 l 0,24 c 0,3.283091 2.685659,5.96875 5.96875,5.96875 l 8,0 c 3.283091,0 5.96875,-2.685659 5.96875,-5.96875 l 0,-24 c 0,-3.283091 -2.685659,-5.96875 -5.96875,-5.96875 l -8,0 z" />
    <path
       sodipodi:type="inkscape:offset"
       inkscape:radius="1.0198669"
       inkscape:original="M 74 -65 C 71.784 -65 70 -63.216 70 -61 L 70 11 C 70 13.216 71.784 15 74 15 L 82 15 C 84.216 15 86 13.216 86 11 L 86 -61 C 86 -63.216 84.216 -65 82 -65 L 74 -65 z M 54 -49 C 51.784 -49 50 -47.216 50 -45 L 50 11 C 50 13.216 51.784 15 54 15 L 62 15 C 64.216 15 66 13.216 66 11 L 66 -45 C 66 -47.216 64.216 -49 62 -49 L 54 -49 z M 34 -33 C 31.784 -33 30 -31.216 30 -29 L 30 11 C 30 13.216 31.784 15 34 15 L 42 15 C 44.216 15 46 13.216 46 11 L 46 -29 C 46 -31.216 44.216 -33 42 -33 L 34 -33 z M 14 -17 C 11.784 -17 10 -15.216 10 -13 L 10 11 C 10 13.216 11.784 15 14 15 L 22 15 C 24.216 15 26 13.216 26 11 L 26 -13 C 26 -15.216 24.216 -17 22 -17 L 14 -17 z "
       style="opacity:0.15;fill:#000000;fill-opacity:1;stroke:none"
       id="path3762"
       d="m 74,-66.03125 c -2.763365,0 -5.03125,2.267885 -5.03125,5.03125 l 0,72 c 0,2.763365 2.267885,5.03125 5.03125,5.03125 l 8,0 c 2.763365,0 5.03125,-2.267885 5.03125,-5.03125 l 0,-72 c 0,-2.763365 -2.267885,-5.03125 -5.03125,-5.03125 l -8,0 z m -20,16 c -2.763365,0 -5.03125,2.267885 -5.03125,5.03125 l 0,56 c 0,2.763365 2.267885,5.03125 5.03125,5.03125 l 8,0 c 2.763365,0 5.03125,-2.267885 5.03125,-5.03125 l 0,-56 c 0,-2.763365 -2.267885,-5.03125 -5.03125,-5.03125 l -8,0 z m -20,16 c -2.763365,0 -5.03125,2.267885 -5.03125,5.03125 l 0,40 c 0,2.763365 2.267885,5.03125 5.03125,5.03125 l 8,0 c 2.763365,0 5.03125,-2.267885 5.03125,-5.03125 l 0,-40 c 0,-2.763365 -2.267885,-5.03125 -5.03125,-5.03125 l -8,0 z m -20,16 c -2.763365,0 -5.03125,2.267885 -5.03125,5.03125 l 0,24 c 0,2.763365 2.267885,5.03125 5.03125,5.03125 l 8,0 c 2.763365,0 5.03125,-2.267885 5.03125,-5.03125 l 0,-24 c 0,-2.763365 -2.267885,-5.03125 -5.03125,-5.03125 l -8,0 z" />
    <path
       style="fill:#000000;fill-opacity:1;stroke:none;opacity:0.3"
       d="m 74,-65 c -2.216,0 -4,1.784 -4,4 l 0,72 c 0,2.216 1.784,4 4,4 l 8,0 c 2.216,0 4,-1.784 4,-4 l 0,-72 c 0,-2.216 -1.784,-4 -4,-4 l -8,0 z m -20,16 c -2.216,0 -4,1.784 -4,4 l 0,56 c 0,2.216 1.784,4 4,4 l 8,0 c 2.216,0 4,-1.784 4,-4 l 0,-56 c 0,-2.216 -1.784,-4 -4,-4 l -8,0 z m -20,16 c -2.216,0 -4,1.784 -4,4 l 0,40 c 0,2.216 1.784,4 4,4 l 8,0 c 2.216,0 4,-1.784 4,-4 l 0,-40 c 0,-2.216 -1.784,-4 -4,-4 l -8,0 z m -20,16 c -2.216,0 -4,1.784 -4,4 l 0,24 c 0,2.216 1.784,4 4,4 l 8,0 c 2.216,0 4,-1.784 4,-4 l 0,-24 c 0,-2.216 -1.784,-4 -4,-4 l -8,0 z"
       id="rect3747" />
    <rect
       style="fill:url(#linearGradient3689);fill-opacity:1;stroke:none"
       id="rect2903"
       width="16"
       height="80"
       x="70"
       y="-66"
       rx="4"
       ry="4" />
    <rect
       y="-50"
       x="50"
       height="64"
       width="16"
       id="rect2905"
       style="fill:url(#linearGradient3691);fill-opacity:1;stroke:none"
       rx="4"
       ry="4" />
    <rect
       style="fill:url(#linearGradient3693);fill-opacity:1;stroke:none"
       id="rect2907"
       width="16"
       height="48"
       x="30"
       y="-34"
       rx="4"
       ry="4" />
    <rect
       y="-18"
       x="10"
       height="32"
       width="16"
       id="rect2909"
       style="fill:url(#linearGradient3695);fill-opacity:1;stroke:none"
       rx="4"
       ry="4" />
    <path
       style="fill:url(#linearGradient3719);fill-opacity:1;stroke:none;opacity:0.59999999999999998"
       d="m 74,-66 c -2.216,0 -4,1.784 -4,4 l 0,72 c 0,1.798949 1.184428,3.275003 2.8125,3.78125 C 71.72124,13.326579 70.96875,12.273179 70.96875,11 l 0,-72 c 0,-1.697572 1.333678,-3.03125 3.03125,-3.03125 l 8,0 c 1.697572,0 3.03125,1.333678 3.03125,3.03125 l 0,72 c 0,1.273179 -0.75249,2.326579 -1.84375,2.78125 C 84.815572,13.275003 86,11.798949 86,10 l 0,-72 c 0,-2.216 -1.784,-4 -4,-4 l -8,0 z"
       id="path2939" />
    <path
       style="fill:url(#linearGradient3731);fill-opacity:1;stroke:none;opacity:0.59999999999999998"
       d="m 54,-50 c -2.216,0 -4,1.784 -4,4 l 0,56 c 0,1.798949 1.184428,3.275003 2.8125,3.78125 C 51.72124,13.326579 50.96875,12.273179 50.96875,11 l 0,-56 c 0,-1.697572 1.333678,-3.03125 3.03125,-3.03125 l 8,0 c 1.697572,0 3.03125,1.333678 3.03125,3.03125 l 0,56 c 0,1.273179 -0.75249,2.326579 -1.84375,2.78125 C 64.815572,13.275003 66,11.798949 66,10 l 0,-56 c 0,-2.216 -1.784,-4 -4,-4 l -8,0 z"
       id="path2937" />
    <path
       style="fill:url(#linearGradient3729);fill-opacity:1;stroke:none;opacity:0.59999999999999998"
       d="m 34,-34 c -2.216,0 -4,1.784 -4,4 l 0,40 c 0,1.798949 1.184428,3.275003 2.8125,3.78125 C 31.72124,13.326579 30.96875,12.273179 30.96875,11 l 0,-40 c 0,-1.697572 1.333678,-3.03125 3.03125,-3.03125 l 8,0 c 1.697572,0 3.03125,1.333678 3.03125,3.03125 l 0,40 c 0,1.273179 -0.75249,2.326579 -1.84375,2.78125 C 44.815572,13.275003 46,11.798949 46,10 l 0,-40 c 0,-2.216 -1.784,-4 -4,-4 l -8,0 z"
       id="path2935" />
    <path
       style="fill:url(#linearGradient3727);fill-opacity:1;stroke:none;opacity:0.59999999999999998"
       d="m 14,-18 c -2.216,0 -4,1.784 -4,4 l 0,24 c 0,1.798949 1.184428,3.275003 2.8125,3.78125 C 11.72124,13.326579 10.96875,12.273179 10.96875,11 l 0,-24 c 0,-1.697572 1.333678,-3.03125 3.03125,-3.03125 l 8,0 c 1.697572,0 3.03125,1.333678 3.03125,3.03125 l 0,24 c 0,1.273179 -0.75249,2.326579 -1.84375,2.78125 C 24.815572,13.275003 26,11.798949 26,10 l 0,-24 c 0,-2.216 -1.784,-4 -4,-4 l -8,0 z"
       id="rect2912" />
  </g>
</svg>
